<?xml version="1.0" encoding="UTF-8" standalone="no"?>
<!DOCTYPE svg PUBLIC "-//W3C//DTD SVG 1.1//EN"
 "http://www.w3.org/Graphics/SVG/1.1/DTD/svg11.dtd">
<!-- Generated by graphviz version 2.43.0 (0)
 -->
<!-- Title: %3 Pages: 1 -->
<svg
 viewBox="0.00 0.00 197.00 67.00" xmlns="http://www.w3.org/2000/svg" xmlns:xlink="http://www.w3.org/1999/xlink">
<g id="graph0" class="graph" transform="scale(1 1) rotate(0) translate(4 63)">
<title>%3</title>
<polygon fill="white" stroke="transparent" points="-4,4 -4,-63 193,-63 193,4 -4,4"/>
<!-- start_{(0, &#39;&#39;)} -->
<g id="node1" class="node">
<title>start_{(0, &#39;&#39;)}</title>
<ellipse fill="black" stroke="black" cx="0" cy="-11.5" rx="0" ry="0"/>
</g>
<!-- 0 -->
<g id="node2" class="node">
<title>0</title>
<path fill="#f2d66f" stroke="black" d="M81,-19C81,-19 42,-19 42,-19 39.5,-19 37,-16.5 37,-14 37,-14 37,-9 37,-9 37,-6.5 39.5,-4 42,-4 42,-4 81,-4 81,-4 83.5,-4 86,-6.5 86,-9 86,-9 86,-14 86,-14 86,-16.5 83.5,-19 81,-19"/>
<text text-anchor="middle" x="61.5" y="-9.6" font-family="Monospace" font-size="8.00">{(0, &#39;&#39;)}</text>
</g>
<!-- start_{(0, &#39;&#39;)}&#45;&gt;0 -->
<g id="edge1" class="edge">
<title>start_{(0, &#39;&#39;)}&#45;&gt;0</title>
<path fill="none" stroke="black" d="M1.17,-11.5C2.97,-11.5 18.69,-11.5 33.5,-11.5"/>
<polygon fill="black" stroke="black" points="33.83,-12.55 36.83,-11.5 33.83,-10.45 33.83,-12.55"/>
</g>
<!-- 0&#45;&gt;0 -->
<g id="edge2" class="edge">
<title>0&#45;&gt;0</title>
<path fill="none" stroke="black" d="M55.59,-19.07C51.66,-27.44 53.62,-37 61.5,-37 68.39,-37 70.76,-29.68 68.61,-22.24"/>
<polygon fill="black" stroke="black" points="69.45,-21.51 67.41,-19.07 67.49,-22.25 69.45,-21.51"/>
<text text-anchor="middle" x="61.5" y="-39.6" font-family="Monospace" font-size="8.00">b</text>
</g>
<!-- 1 -->
<g id="node3" class="node">
<title>1</title>
<path fill="#90ee90" stroke="black" d="M180,-19C180,-19 136,-19 136,-19 133.5,-19 131,-16.5 131,-14 131,-14 131,-9 131,-9 131,-6.5 133.5,-4 136,-4 136,-4 180,-4 180,-4 182.5,-4 185,-6.5 185,-9 185,-9 185,-14 185,-14 185,-16.5 182.5,-19 180,-19"/>
<path fill="none" stroke="black" d="M181.33,-23C181.33,-23 134.67,-23 134.67,-23 130.83,-23 127,-19.17 127,-15.33 127,-15.33 127,-7.67 127,-7.67 127,-3.83 130.83,0 134.67,0 134.67,0 181.33,0 181.33,0 185.17,0 189,-3.83 189,-7.67 189,-7.67 189,-15.33 189,-15.33 189,-19.17 185.17,-23 181.33,-23"/>
<text text-anchor="middle" x="158" y="-9.6" font-family="Monospace" font-size="8.00">{(0, &#39;A&#39;)}</text>
</g>
<!-- 0&#45;&gt;1 -->
<g id="edge3" class="edge">
<title>0&#45;&gt;1</title>
<path fill="none" stroke="black" d="M86.35,-11.5C97.64,-11.5 111.31,-11.5 123.61,-11.5"/>
<polygon fill="black" stroke="black" points="123.71,-12.55 126.71,-11.5 123.71,-10.45 123.71,-12.55"/>
<text text-anchor="middle" x="106.5" y="-14.1" font-family="Monospace" font-size="8.00">a</text>
</g>
<!-- 1&#45;&gt;1 -->
<g id="edge4" class="edge">
<title>1&#45;&gt;1</title>
<path fill="none" stroke="black" d="M149.84,-23.01C146.78,-31.91 149.5,-41 158,-41 165.57,-41 168.55,-33.79 166.96,-25.92"/>
<polygon fill="black" stroke="black" points="167.97,-25.62 166.16,-23.01 165.94,-26.18 167.97,-25.62"/>
<text text-anchor="middle" x="158" y="-52.6" font-family="Monospace" font-size="8.00">a</text>
<text text-anchor="middle" x="158" y="-43.6" font-family="Monospace" font-size="8.00">b</text>
</g>
</g>
</svg>
