<?xml version="1.0" encoding="UTF-8" standalone="no"?>
<!DOCTYPE svg PUBLIC "-//W3C//DTD SVG 1.1//EN"
 "http://www.w3.org/Graphics/SVG/1.1/DTD/svg11.dtd">
<!-- Generated by graphviz version 2.43.0 (0)
 -->
<!-- Title: %3 Pages: 1 -->
<svg
 viewBox="0.00 0.00 74.00 58.00" xmlns="http://www.w3.org/2000/svg" xmlns:xlink="http://www.w3.org/1999/xlink">
<g id="graph0" class="graph" transform="scale(1 1) rotate(0) translate(4 54)">
<title>%3</title>
<polygon fill="white" stroke="transparent" points="-4,4 -4,-54 70,-54 70,4 -4,4"/>
<!-- __ghost_n0 -->
<g id="node1" class="node">
<title>__ghost_n0</title>
<ellipse fill="black" stroke="black" cx="0" cy="-11.5" rx="0" ry="0"/>
</g>
<!-- n0 -->
<g id="node2" class="node">
<title>n0</title>
<path fill="none" stroke="black" d="M49.67,-19C49.67,-19 45.33,-19 45.33,-19 43.17,-19 41,-16.83 41,-14.67 41,-14.67 41,-8.33 41,-8.33 41,-6.17 43.17,-4 45.33,-4 45.33,-4 49.67,-4 49.67,-4 51.83,-4 54,-6.17 54,-8.33 54,-8.33 54,-14.67 54,-14.67 54,-16.83 51.83,-19 49.67,-19"/>
<path fill="none" stroke="black" d="M51,-23C51,-23 44,-23 44,-23 40.5,-23 37,-19.5 37,-16 37,-16 37,-7 37,-7 37,-3.5 40.5,0 44,0 44,0 51,0 51,0 54.5,0 58,-3.5 58,-7 58,-7 58,-16 58,-16 58,-19.5 54.5,-23 51,-23"/>
<text text-anchor="middle" x="47.5" y="-9.6" font-family="Monospace" font-size="8.00">0</text>
</g>
<!-- __ghost_n0&#45;&gt;n0 -->
<g id="edge1" class="edge">
<title>__ghost_n0&#45;&gt;n0</title>
<path fill="none" stroke="black" d="M1.13,-11.5C2.84,-11.5 21,-11.5 33.82,-11.5"/>
<polygon fill="black" stroke="black" points="33.95,-12.55 36.95,-11.5 33.95,-10.45 33.95,-12.55"/>
</g>
<!-- n0&#45;&gt;n0 -->
<g id="e_16696b8a_0" class="edge">
<title>n0&#45;&gt;n0</title>
<g id="a_e_16696b8a_0"><a xlink:title="a:A, b:ε">
<path fill="none" stroke="black" d="M42.93,-23.01C41.22,-31.91 42.74,-41 47.5,-41 51.66,-41 53.35,-34.04 52.56,-26.34"/>
<polygon fill="black" stroke="black" points="53.55,-25.82 52.07,-23.01 51.47,-26.13 53.55,-25.82"/>
</a>
</g>
<text text-anchor="start" x="29" y="-43.6" font-family="Monospace" font-size="8.00">b:ε, a:A</text>
</g>
</g>
</svg>
