<?xml version="1.0" encoding="UTF-8" standalone="no"?>
<!DOCTYPE svg PUBLIC "-//W3C//DTD SVG 1.1//EN"
 "http://www.w3.org/Graphics/SVG/1.1/DTD/svg11.dtd">
<!-- Generated by graphviz version 2.43.0 (0)
 -->
<!-- Title: %3 Pages: 1 -->
<svg
 viewBox="0.00 0.00 303.20 105.20" xmlns="http://www.w3.org/2000/svg" xmlns:xlink="http://www.w3.org/1999/xlink">
<g id="graph0" class="graph" transform="scale(1 1) rotate(0) translate(21.6 83.6)">
<title>%3</title>
<text text-anchor="middle" x="130" y="-9.2" font-family="Helvetica,sans-Serif" font-size="16.00" fill="#333333">transduction</text>
<!-- px -->
<g id="node1" class="node">
<title>px</title>
<ellipse fill="#f9e4b7" stroke="#d4a84b" cx="32.5" cy="-44" rx="32.5" ry="18"/>
<text text-anchor="middle" x="32.5" y="-40.3" font-family="Helvetica,sans-Serif" font-size="14.00" fill="#333333">p(x)</text>
</g>
<!-- fst -->
<g id="node2" class="node">
<title>fst</title>
<path fill="#4a86c8" stroke="#3a6ea5" d="M147,-62C147,-62 113,-62 113,-62 107,-62 101,-56 101,-50 101,-50 101,-38 101,-38 101,-32 107,-26 113,-26 113,-26 147,-26 147,-26 153,-26 159,-32 159,-38 159,-38 159,-50 159,-50 159,-56 153,-62 147,-62"/>
<text text-anchor="middle" x="130" y="-40.3" font-family="Helvetica,sans-Serif" font-size="14.00" fill="white">FST</text>
</g>
<!-- px&#45;&gt;fst -->
<g id="edge1" class="edge">
<title>px&#45;&gt;fst</title>
<path fill="none" stroke="#666666" stroke-width="1.5" d="M65.03,-44C74.21,-44 84.3,-44 93.69,-44"/>
<polygon fill="#666666" stroke="#666666" stroke-width="1.5" points="93.72,-46.45 100.72,-44 93.72,-41.55 93.72,-46.45"/>
</g>
<!-- py -->
<g id="node3" class="node">
<title>py</title>
<ellipse fill="#c8e6c9" stroke="#66bb6a" cx="227.5" cy="-44" rx="32.5" ry="18"/>
<text text-anchor="middle" x="227.5" y="-40.3" font-family="Helvetica,sans-Serif" font-size="14.00" fill="#333333">p(y)</text>
</g>
<!-- fst&#45;&gt;py -->
<g id="edge2" class="edge">
<title>fst&#45;&gt;py</title>
<path fill="none" stroke="#666666" stroke-width="1.5" d="M159.14,-44C168.08,-44 178.14,-44 187.7,-44"/>
<polygon fill="#666666" stroke="#666666" stroke-width="1.5" points="187.88,-46.45 194.88,-44 187.88,-41.55 187.88,-46.45"/>
</g>
</g>
</svg>
