<?xml version="1.0" encoding="UTF-8" standalone="no"?>
<!DOCTYPE svg PUBLIC "-//W3C//DTD SVG 1.1//EN"
 "http://www.w3.org/Graphics/SVG/1.1/DTD/svg11.dtd">
<!-- Generated by graphviz version 2.43.0 (0)
 -->
<!-- Title: %3 Pages: 1 -->
<svg
 viewBox="0.00 0.00 414.29 97.60" xmlns="http://www.w3.org/2000/svg" xmlns:xlink="http://www.w3.org/1999/xlink">
<g id="graph0" class="graph" transform="scale(1 1) rotate(0) translate(28.8 68.8)">
<title>%3</title>
<!-- px -->
<g id="node1" class="node">
<title>px</title>
<ellipse fill="#fff3e0" stroke="#e6a123" stroke-width="1.5" cx="31.67" cy="-20" rx="31.85" ry="16"/>
<text text-anchor="start" x="16.67" y="-17.6" font-family="Helvetica,sans-Serif" font-weight="bold" font-size="13.00" fill="#333333">p</text>
<text text-anchor="start" x="26.67" y="-17.6" font-family="Helvetica,sans-Serif" font-size="13.00" fill="#333333">(</text>
<text text-anchor="start" x="32.67" y="-17.6" font-family="Helvetica,sans-Serif" font-style="italic" font-size="13.00" fill="#333333">x</text>
<text text-anchor="start" x="40.67" y="-17.6" font-family="Helvetica,sans-Serif" font-size="13.00" fill="#333333">)</text>
</g>
<!-- fst -->
<g id="node2" class="node">
<title>fst</title>
<path fill="#4a86c8" stroke="#35628f" stroke-width="1.8" d="M199.34,-40C199.34,-40 158.34,-40 158.34,-40 152.34,-40 146.34,-34 146.34,-28 146.34,-28 146.34,-12 146.34,-12 146.34,-6 152.34,0 158.34,0 158.34,0 199.34,0 199.34,0 205.34,0 211.34,-6 211.34,-12 211.34,-12 211.34,-28 211.34,-28 211.34,-34 205.34,-40 199.34,-40"/>
<text text-anchor="start" x="175.34" y="-21.6" font-family="Helvetica,sans-Serif" font-weight="bold" font-style="italic" font-size="13.00" fill="white">f</text>
<text text-anchor="start" x="161.84" y="-11.8" font-family="Helvetica,sans-Serif" font-size="9.00" fill="white">X* → Y*</text>
</g>
<!-- px&#45;&gt;fst -->
<g id="edge1" class="edge">
<title>px&#45;&gt;fst</title>
<path fill="none" stroke="#555555" stroke-width="1.2" d="M63.46,-20C85.77,-20 116.07,-20 139.88,-20"/>
<polygon fill="#555555" stroke="#555555" stroke-width="1.2" points="140.1,-22.1 146.1,-20 140.1,-17.9 140.1,-22.1"/>
<text text-anchor="middle" x="104.84" y="-23" font-family="Helvetica,sans-Serif" font-size="10.00" fill="#888888"> &#160;X* &#160;</text>
</g>
<!-- py -->
<g id="node3" class="node">
<title>py</title>
<ellipse fill="#e8f5e9" stroke="#4caf50" stroke-width="1.5" cx="325.02" cy="-20" rx="31.85" ry="16"/>
<text text-anchor="start" x="310.02" y="-17.6" font-family="Helvetica,sans-Serif" font-weight="bold" font-size="13.00" fill="#333333">p</text>
<text text-anchor="start" x="320.02" y="-17.6" font-family="Helvetica,sans-Serif" font-size="13.00" fill="#333333">(</text>
<text text-anchor="start" x="326.02" y="-17.6" font-family="Helvetica,sans-Serif" font-style="italic" font-size="13.00" fill="#333333">y</text>
<text text-anchor="start" x="334.02" y="-17.6" font-family="Helvetica,sans-Serif" font-size="13.00" fill="#333333">)</text>
</g>
<!-- fst&#45;&gt;py -->
<g id="edge2" class="edge">
<title>fst&#45;&gt;py</title>
<path fill="none" stroke="#555555" stroke-width="1.2" d="M211.48,-20C233.7,-20 263.5,-20 286.85,-20"/>
<polygon fill="#555555" stroke="#555555" stroke-width="1.2" points="286.95,-22.1 292.95,-20 286.95,-17.9 286.95,-22.1"/>
<text text-anchor="middle" x="252.34" y="-23" font-family="Helvetica,sans-Serif" font-size="10.00" fill="#888888"> &#160;Y* &#160;</text>
</g>
</g>
</svg>
