<?xml version="1.0" encoding="UTF-8" standalone="no"?>
<!DOCTYPE svg PUBLIC "-//W3C//DTD SVG 1.1//EN"
 "http://www.w3.org/Graphics/SVG/1.1/DTD/svg11.dtd">
<!-- Generated by graphviz version 2.43.0 (0)
 -->
<!-- Title: %3 Pages: 1 -->
<svg
 viewBox="0.00 0.00 410.00 143.52" xmlns="http://www.w3.org/2000/svg" xmlns:xlink="http://www.w3.org/1999/xlink">
<g id="graph0" class="graph" transform="scale(1 1) rotate(0) translate(4 139.52)">
<title>%3</title>
<polygon fill="white" stroke="transparent" points="-4,4 -4,-139.52 406,-139.52 406,4 -4,4"/>
<!-- __ghost_n0 -->
<g id="node1" class="node">
<title>__ghost_n0</title>
<ellipse fill="black" stroke="black" cx="0" cy="-44.52" rx="0" ry="0"/>
</g>
<!-- n0 -->
<g id="node2" class="node">
<title>n0</title>
<path fill="none" stroke="black" d="M49.67,-52.02C49.67,-52.02 45.33,-52.02 45.33,-52.02 43.17,-52.02 41,-49.86 41,-47.69 41,-47.69 41,-41.36 41,-41.36 41,-39.19 43.17,-37.02 45.33,-37.02 45.33,-37.02 49.67,-37.02 49.67,-37.02 51.83,-37.02 54,-39.19 54,-41.36 54,-41.36 54,-47.69 54,-47.69 54,-49.86 51.83,-52.02 49.67,-52.02"/>
<path fill="none" stroke="black" d="M51,-56.02C51,-56.02 44,-56.02 44,-56.02 40.5,-56.02 37,-52.52 37,-49.02 37,-49.02 37,-40.02 37,-40.02 37,-36.52 40.5,-33.02 44,-33.02 44,-33.02 51,-33.02 51,-33.02 54.5,-33.02 58,-36.52 58,-40.02 58,-40.02 58,-49.02 58,-49.02 58,-52.52 54.5,-56.02 51,-56.02"/>
<text text-anchor="middle" x="47.5" y="-42.62" font-family="Monospace" font-size="8.00">0</text>
</g>
<!-- __ghost_n0&#45;&gt;n0 -->
<g id="edge1" class="edge">
<title>__ghost_n0&#45;&gt;n0</title>
<path fill="none" stroke="black" d="M1.13,-44.52C2.84,-44.52 21,-44.52 33.82,-44.52"/>
<polygon fill="black" stroke="black" points="33.95,-45.57 36.95,-44.52 33.95,-43.47 33.95,-45.57"/>
</g>
<!-- n0&#45;&gt;n0 -->
<g id="e_1cadc3e2_0" class="edge">
<title>n0&#45;&gt;n0</title>
<g id="a_e_1cadc3e2_0"><a xlink:title="a, c, d, e, f, g, h, i, j, k, l, m, n, o, p, q, r, s, t, u, v, w, x, y, z">
<path fill="none" stroke="black" d="M42.93,-56.03C41.22,-64.94 42.74,-74.02 47.5,-74.02 51.66,-74.02 53.35,-67.07 52.56,-59.36"/>
<polygon fill="black" stroke="black" points="53.55,-58.85 52.07,-56.03 51.47,-59.15 53.55,-58.85"/>
</a>
</g>
<text text-anchor="start" x="30" y="-77.62" font-family="Monospace" font-size="8.00" fill="#4a86c8">A</text>
<text text-anchor="start" x="35" y="-77.62" font-family="Monospace" font-size="8.00"> </text>
<text text-anchor="start" x="40" y="-77.62" font-family="Monospace" font-size="8.00" fill="#4a86c8">−</text>
<text text-anchor="start" x="45" y="-77.62" font-family="Monospace" font-size="8.00"> </text>
<text text-anchor="start" x="50" y="-77.62" font-family="Monospace" font-size="8.00" fill="#4a86c8">{</text>
<text text-anchor="start" x="55" y="-77.62" font-family="Monospace" font-size="8.00">b</text>
<text text-anchor="start" x="60" y="-77.62" font-family="Monospace" font-size="8.00" fill="#4a86c8">}</text>
</g>
<!-- n1 -->
<g id="node3" class="node">
<title>n1</title>
<path fill="none" stroke="black" d="M397.67,-98.02C397.67,-98.02 393.33,-98.02 393.33,-98.02 391.17,-98.02 389,-95.86 389,-93.69 389,-93.69 389,-87.36 389,-87.36 389,-85.19 391.17,-83.02 393.33,-83.02 393.33,-83.02 397.67,-83.02 397.67,-83.02 399.83,-83.02 402,-85.19 402,-87.36 402,-87.36 402,-93.69 402,-93.69 402,-95.86 399.83,-98.02 397.67,-98.02"/>
<text text-anchor="middle" x="395.5" y="-88.62" font-family="Monospace" font-size="8.00">1</text>
</g>
<!-- n0&#45;&gt;n1 -->
<g id="e_1cadc3e2_2" class="edge">
<title>n0&#45;&gt;n1</title>
<g id="a_e_1cadc3e2_2"><a xlink:title="b:u">
<path fill="none" stroke="black" d="M56.6,-56.03C61.69,-62.77 68.66,-71.19 76,-77.52 102.42,-100.35 109.4,-109.06 143,-118.52 191.61,-132.22 277.41,-131.91 371,-103.52 376.22,-101.94 381.58,-99.09 385.86,-96.46"/>
<polygon fill="black" stroke="black" points="386.66,-97.19 388.63,-94.69 385.54,-95.42 386.66,-97.19"/>
</a>
</g>
<text text-anchor="start" x="248" y="-129.12" font-family="Monospace" font-size="8.00">b:u</text>
</g>
<!-- n2 -->
<g id="node4" class="node">
<title>n2</title>
<path fill="none" stroke="black" d="M169.67,-78.02C169.67,-78.02 165.33,-78.02 165.33,-78.02 163.17,-78.02 161,-75.86 161,-73.69 161,-73.69 161,-67.36 161,-67.36 161,-65.19 163.17,-63.02 165.33,-63.02 165.33,-63.02 169.67,-63.02 169.67,-63.02 171.83,-63.02 174,-65.19 174,-67.36 174,-67.36 174,-73.69 174,-73.69 174,-75.86 171.83,-78.02 169.67,-78.02"/>
<path fill="none" stroke="black" d="M171,-82.02C171,-82.02 164,-82.02 164,-82.02 160.5,-82.02 157,-78.52 157,-75.02 157,-75.02 157,-66.02 157,-66.02 157,-62.52 160.5,-59.02 164,-59.02 164,-59.02 171,-59.02 171,-59.02 174.5,-59.02 178,-62.52 178,-66.02 178,-66.02 178,-75.02 178,-75.02 178,-78.52 174.5,-82.02 171,-82.02"/>
<text text-anchor="middle" x="167.5" y="-68.62" font-family="Monospace" font-size="8.00">2</text>
</g>
<!-- n0&#45;&gt;n2 -->
<g id="e_1cadc3e2_1" class="edge">
<title>n0&#45;&gt;n2</title>
<g id="a_e_1cadc3e2_1"><a xlink:title="b">
<path fill="none" stroke="black" d="M58.15,-43.07C72.89,-41.19 101.75,-38.9 125,-45.52 135.66,-48.56 146.35,-55.1 154.2,-60.73"/>
<polygon fill="black" stroke="black" points="153.93,-61.83 156.97,-62.75 155.17,-60.13 153.93,-61.83"/>
</a>
</g>
<text text-anchor="start" x="98" y="-48.12" font-family="Monospace" font-size="8.00">b</text>
</g>
<!-- n1&#45;&gt;n0 -->
<g id="e_1cadc3e2_10" class="edge">
<title>n1&#45;&gt;n0</title>
<g id="a_e_1cadc3e2_10"><a xlink:title="a:n&#10;d:g&#10;ε:o&#10;ε:o&#10;ε:d">
<path fill="none" stroke="black" d="M388.79,-83.55C384.08,-77.84 377.19,-69.59 371,-62.52 357.11,-46.67 356.41,-39.4 339,-27.52 323.66,-17.06 318.26,-15.91 300,-12.52 201.9,5.69 170.31,5.05 76,-27.52 70.73,-29.35 65.4,-32.31 60.87,-35.27"/>
<polygon fill="black" stroke="black" points="60.05,-34.55 58.15,-37.09 61.22,-36.29 60.05,-34.55"/>
</a>
</g>
<text text-anchor="start" x="210" y="-16.12" font-family="Monospace" font-size="8.00">a:n</text>
<text text-anchor="start" x="224" y="-16.12" font-family="Monospace" font-size="8.00" fill="#4a86c8">·</text>
<text text-anchor="start" x="229" y="-16.12" font-family="Monospace" font-size="8.00">d:g</text>
<text text-anchor="start" x="243" y="-16.12" font-family="Monospace" font-size="8.00" fill="#4a86c8">·</text>
<text text-anchor="start" x="248" y="-16.12" font-family="Monospace" font-size="8.00">ε:o</text>
<text text-anchor="start" x="262" y="-16.12" font-family="Monospace" font-size="8.00" fill="#4a86c8">·</text>
<text text-anchor="start" x="267" y="-16.12" font-family="Monospace" font-size="8.00">ε:o</text>
<text text-anchor="start" x="281" y="-16.12" font-family="Monospace" font-size="8.00" fill="#4a86c8">·</text>
<text text-anchor="start" x="286" y="-16.12" font-family="Monospace" font-size="8.00">ε:d</text>
</g>
<!-- n2&#45;&gt;n0 -->
<g id="e_1cadc3e2_6" class="edge">
<title>n2&#45;&gt;n0</title>
<g id="a_e_1cadc3e2_6"><a xlink:title="c, d, e, f, g, h, i, j, k, l, m, n, o, p, q, r, s, t, u, v, w, x, y, z">
<path fill="none" stroke="black" d="M156.87,-69.38C140.2,-67.28 104.97,-62.29 76,-54.52 70.96,-53.17 65.54,-51.3 60.85,-49.53"/>
<polygon fill="black" stroke="black" points="61.22,-48.55 58.04,-48.46 60.47,-50.51 61.22,-48.55"/>
</a>
</g>
<text text-anchor="start" x="76" y="-68.12" font-family="Monospace" font-size="8.00" fill="#4a86c8">A</text>
<text text-anchor="start" x="81" y="-68.12" font-family="Monospace" font-size="8.00"> </text>
<text text-anchor="start" x="86" y="-68.12" font-family="Monospace" font-size="8.00" fill="#4a86c8">−</text>
<text text-anchor="start" x="91" y="-68.12" font-family="Monospace" font-size="8.00"> </text>
<text text-anchor="start" x="96" y="-68.12" font-family="Monospace" font-size="8.00" fill="#4a86c8">{</text>
<text text-anchor="start" x="101" y="-68.12" font-family="Monospace" font-size="8.00">a, b</text>
<text text-anchor="start" x="120" y="-68.12" font-family="Monospace" font-size="8.00" fill="#4a86c8">}</text>
</g>
<!-- n2&#45;&gt;n1 -->
<g id="e_1cadc3e2_5" class="edge">
<title>n2&#45;&gt;n1</title>
<g id="a_e_1cadc3e2_5"><a xlink:title="b:u">
<path fill="none" stroke="black" d="M178.01,-72.71C186.38,-74.55 198.94,-77.1 210,-78.52 277.03,-87.13 358.6,-89.7 385.46,-90.34"/>
<polygon fill="black" stroke="black" points="385.71,-91.39 388.74,-90.41 385.76,-89.29 385.71,-91.39"/>
</a>
</g>
<text text-anchor="start" x="321.5" y="-91.12" font-family="Monospace" font-size="8.00">b:u</text>
</g>
<!-- n2&#45;&gt;n2 -->
<g id="e_1cadc3e2_4" class="edge">
<title>n2&#45;&gt;n2</title>
<g id="a_e_1cadc3e2_4"><a xlink:title="b">
<path fill="none" stroke="black" d="M156.87,-81.72C152.61,-90.73 156.16,-100.02 167.5,-100.02 177.6,-100.02 181.52,-92.65 179.25,-84.68"/>
<polygon fill="black" stroke="black" points="180.18,-84.16 178.13,-81.72 178.21,-84.9 180.18,-84.16"/>
</a>
</g>
<text text-anchor="start" x="165" y="-102.62" font-family="Monospace" font-size="8.00">b</text>
</g>
<!-- n4 -->
<g id="node5" class="node">
<title>n4</title>
<path fill="none" stroke="black" d="M330.67,-56.02C330.67,-56.02 326.33,-56.02 326.33,-56.02 324.17,-56.02 322,-53.86 322,-51.69 322,-51.69 322,-45.36 322,-45.36 322,-43.19 324.17,-41.02 326.33,-41.02 326.33,-41.02 330.67,-41.02 330.67,-41.02 332.83,-41.02 335,-43.19 335,-45.36 335,-45.36 335,-51.69 335,-51.69 335,-53.86 332.83,-56.02 330.67,-56.02"/>
<path fill="none" stroke="black" d="M332,-60.02C332,-60.02 325,-60.02 325,-60.02 321.5,-60.02 318,-56.52 318,-53.02 318,-53.02 318,-44.02 318,-44.02 318,-40.52 321.5,-37.02 325,-37.02 325,-37.02 332,-37.02 332,-37.02 335.5,-37.02 339,-40.52 339,-44.02 339,-44.02 339,-53.02 339,-53.02 339,-56.52 335.5,-60.02 332,-60.02"/>
<text text-anchor="middle" x="328.5" y="-46.62" font-family="Monospace" font-size="8.00">4</text>
</g>
<!-- n2&#45;&gt;n4 -->
<g id="e_1cadc3e2_3" class="edge">
<title>n2&#45;&gt;n4</title>
<g id="a_e_1cadc3e2_3"><a xlink:title="a">
<path fill="none" stroke="black" d="M178.11,-69.67C199.9,-67.65 254.65,-62.21 300,-54.52 304.85,-53.7 310.15,-52.6 314.78,-51.56"/>
<polygon fill="black" stroke="black" points="315.18,-52.55 317.87,-50.86 314.71,-50.5 315.18,-52.55"/>
</a>
</g>
<text text-anchor="start" x="252.5" y="-68.12" font-family="Monospace" font-size="8.00">a</text>
</g>
<!-- n4&#45;&gt;n0 -->
<g id="e_1cadc3e2_7" class="edge">
<title>n4&#45;&gt;n0</title>
<g id="a_e_1cadc3e2_7"><a xlink:title="a, c, e, f, g, h, i, j, k, l, m, n, o, p, q, r, s, t, u, v, w, x, y, z">
<path fill="none" stroke="black" d="M317.9,-43.17C312.76,-40.61 306.22,-37.82 300,-36.52 202.54,-16.19 174.74,-24.78 76,-37.52 71.08,-38.16 65.77,-39.38 61.14,-40.62"/>
<polygon fill="black" stroke="black" points="60.67,-39.67 58.06,-41.48 61.23,-41.69 60.67,-39.67"/>
</a>
</g>
<text text-anchor="start" x="143" y="-32.12" font-family="Monospace" font-size="8.00" fill="#4a86c8">A</text>
<text text-anchor="start" x="148" y="-32.12" font-family="Monospace" font-size="8.00"> </text>
<text text-anchor="start" x="153" y="-32.12" font-family="Monospace" font-size="8.00" fill="#4a86c8">−</text>
<text text-anchor="start" x="158" y="-32.12" font-family="Monospace" font-size="8.00"> </text>
<text text-anchor="start" x="163" y="-32.12" font-family="Monospace" font-size="8.00" fill="#4a86c8">{</text>
<text text-anchor="start" x="168" y="-32.12" font-family="Monospace" font-size="8.00">b, d</text>
<text text-anchor="start" x="187" y="-32.12" font-family="Monospace" font-size="8.00" fill="#4a86c8">}</text>
</g>
<!-- n4&#45;&gt;n1 -->
<g id="e_1cadc3e2_9" class="edge">
<title>n4&#45;&gt;n1</title>
<g id="a_e_1cadc3e2_9"><a xlink:title="b:u">
<path fill="none" stroke="black" d="M339.09,-54.72C351.83,-62.95 374.12,-77.36 386.18,-85.15"/>
<polygon fill="black" stroke="black" points="385.65,-86.05 388.74,-86.8 386.79,-84.29 385.65,-86.05"/>
</a>
</g>
<text text-anchor="start" x="357" y="-76.12" font-family="Monospace" font-size="8.00">b:u</text>
</g>
<!-- n4&#45;&gt;n2 -->
<g id="e_1cadc3e2_8" class="edge">
<title>n4&#45;&gt;n2</title>
<g id="a_e_1cadc3e2_8"><a xlink:title="b">
<path fill="none" stroke="black" d="M317.83,-46.4C297.43,-42.34 248.73,-34.76 210,-45.52 199.32,-48.49 188.63,-55.03 180.78,-60.68"/>
<polygon fill="black" stroke="black" points="179.82,-60.09 178.02,-62.71 181.06,-61.78 179.82,-60.09"/>
</a>
</g>
<text text-anchor="start" x="252.5" y="-48.12" font-family="Monospace" font-size="8.00">b</text>
</g>
</g>
</svg>
