<?xml version="1.0" encoding="UTF-8" standalone="no"?>
<!DOCTYPE svg PUBLIC "-//W3C//DTD SVG 1.1//EN"
 "http://www.w3.org/Graphics/SVG/1.1/DTD/svg11.dtd">
<!-- Generated by graphviz version 2.43.0 (0)
 -->
<!-- Title: %3 Pages: 1 -->
<svg
 viewBox="0.00 0.00 194.00 55.50" xmlns="http://www.w3.org/2000/svg" xmlns:xlink="http://www.w3.org/1999/xlink">
<g id="graph0" class="graph" transform="scale(1 1) rotate(0) translate(4 51.5)">
<title>%3</title>
<polygon fill="white" stroke="transparent" points="-4,4 -4,-51.5 190,-51.5 190,4 -4,4"/>
<!-- __ghost_n0 -->
<g id="node1" class="node">
<title>__ghost_n0</title>
<ellipse fill="black" stroke="black" cx="0" cy="-28.5" rx="0" ry="0"/>
</g>
<!-- n0 -->
<g id="node2" class="node">
<title>n0</title>
<path fill="none" stroke="black" d="M45.67,-36C45.67,-36 41.33,-36 41.33,-36 39.17,-36 37,-33.83 37,-31.67 37,-31.67 37,-25.33 37,-25.33 37,-23.17 39.17,-21 41.33,-21 41.33,-21 45.67,-21 45.67,-21 47.83,-21 50,-23.17 50,-25.33 50,-25.33 50,-31.67 50,-31.67 50,-33.83 47.83,-36 45.67,-36"/>
<text text-anchor="middle" x="43.5" y="-26.6" font-family="Monospace" font-size="8.00">0</text>
</g>
<!-- __ghost_n0&#45;&gt;n0 -->
<g id="edge1" class="edge">
<title>__ghost_n0&#45;&gt;n0</title>
<path fill="none" stroke="black" d="M1.12,-28.5C2.81,-28.5 22.01,-28.5 33.66,-28.5"/>
<polygon fill="black" stroke="black" points="33.72,-29.55 36.72,-28.5 33.72,-27.45 33.72,-29.55"/>
</g>
<!-- n1 -->
<g id="node3" class="node">
<title>n1</title>
<path fill="none" stroke="black" d="M110.17,-38C110.17,-38 105.83,-38 105.83,-38 103.67,-38 101.5,-35.83 101.5,-33.67 101.5,-33.67 101.5,-27.33 101.5,-27.33 101.5,-25.17 103.67,-23 105.83,-23 105.83,-23 110.17,-23 110.17,-23 112.33,-23 114.5,-25.17 114.5,-27.33 114.5,-27.33 114.5,-33.67 114.5,-33.67 114.5,-35.83 112.33,-38 110.17,-38"/>
<text text-anchor="middle" x="108" y="-28.6" font-family="Monospace" font-size="8.00">1</text>
</g>
<!-- n0&#45;&gt;n1 -->
<g id="e_a3a6f4a5_0" class="edge">
<title>n0&#45;&gt;n1</title>
<g id="a_e_a3a6f4a5_0"><a xlink:title="a:ε, b:ε">
<path fill="none" stroke="black" d="M50.09,-31.64C54.72,-34.05 61.57,-37.19 68,-38.5 78.43,-40.63 90.42,-37.3 98.33,-34.31"/>
<polygon fill="black" stroke="black" points="99.05,-35.15 101.45,-33.07 98.27,-33.2 99.05,-35.15"/>
</a>
</g>
<text text-anchor="start" x="68" y="-42.1" font-family="Monospace" font-size="8.00" fill="#4a86c8">A</text>
<text text-anchor="start" x="73" y="-42.1" font-family="Monospace" font-size="8.00">:ε</text>
</g>
<!-- n2 -->
<g id="node4" class="node">
<title>n2</title>
<path fill="none" stroke="black" d="M177.67,-19C177.67,-19 173.33,-19 173.33,-19 171.17,-19 169,-16.83 169,-14.67 169,-14.67 169,-8.33 169,-8.33 169,-6.17 171.17,-4 173.33,-4 173.33,-4 177.67,-4 177.67,-4 179.83,-4 182,-6.17 182,-8.33 182,-8.33 182,-14.67 182,-14.67 182,-16.83 179.83,-19 177.67,-19"/>
<path fill="none" stroke="black" d="M179,-23C179,-23 172,-23 172,-23 168.5,-23 165,-19.5 165,-16 165,-16 165,-7 165,-7 165,-3.5 168.5,0 172,0 172,0 179,0 179,0 182.5,0 186,-3.5 186,-7 186,-7 186,-16 186,-16 186,-19.5 182.5,-23 179,-23"/>
<text text-anchor="middle" x="175.5" y="-9.6" font-family="Monospace" font-size="8.00">2</text>
</g>
<!-- n0&#45;&gt;n2 -->
<g id="e_a3a6f4a5_1" class="edge">
<title>n0&#45;&gt;n2</title>
<g id="a_e_a3a6f4a5_1"><a xlink:title="ε:1">
<path fill="none" stroke="black" d="M50.21,-25.3C60.15,-19.94 81.46,-9.32 101,-5.5 122.03,-1.38 146.97,-5.21 161.73,-8.36"/>
<polygon fill="black" stroke="black" points="161.74,-9.44 164.89,-9.06 162.19,-7.39 161.74,-9.44"/>
</a>
</g>
<text text-anchor="start" x="101" y="-8.1" font-family="Monospace" font-size="8.00">ε:1</text>
</g>
<!-- n1&#45;&gt;n0 -->
<g id="e_a3a6f4a5_2" class="edge">
<title>n1&#45;&gt;n0</title>
<g id="a_e_a3a6f4a5_2"><a xlink:title="a:ε, b:ε">
<path fill="none" stroke="black" d="M101.47,-30.25C96.61,-30.03 89.34,-29.71 83,-29.5 72.83,-29.16 61.14,-28.87 53.33,-28.69"/>
<polygon fill="black" stroke="black" points="53.26,-27.64 50.24,-28.62 53.22,-29.74 53.26,-27.64"/>
</a>
</g>
<text text-anchor="start" x="68" y="-33.1" font-family="Monospace" font-size="8.00" fill="#4a86c8">A</text>
<text text-anchor="start" x="73" y="-33.1" font-family="Monospace" font-size="8.00">:ε</text>
</g>
<!-- n1&#45;&gt;n2 -->
<g id="e_a3a6f4a5_3" class="edge">
<title>n1&#45;&gt;n2</title>
<g id="a_e_a3a6f4a5_3"><a xlink:title="ε:0">
<path fill="none" stroke="black" d="M114.58,-28.88C124.94,-25.88 147.36,-19.37 161.65,-15.23"/>
<polygon fill="black" stroke="black" points="162.15,-16.18 164.74,-14.33 161.56,-14.16 162.15,-16.18"/>
</a>
</g>
<text text-anchor="start" x="133" y="-25.1" font-family="Monospace" font-size="8.00">ε:0</text>
</g>
</g>
</svg>
