<?xml version="1.0" encoding="UTF-8" standalone="no"?>
<!DOCTYPE svg PUBLIC "-//W3C//DTD SVG 1.1//EN"
 "http://www.w3.org/Graphics/SVG/1.1/DTD/svg11.dtd">
<!-- Generated by graphviz version 2.43.0 (0)
 -->
<!-- Title: %3 Pages: 1 -->
<svg
 viewBox="0.00 0.00 605.20 351.20" xmlns="http://www.w3.org/2000/svg" xmlns:xlink="http://www.w3.org/1999/xlink">
<g id="graph0" class="graph" transform="scale(1 1) rotate(0) translate(21.6 329.6)">
<title>%3</title>
<g id="clust1" class="cluster">
<title>cluster_source</title>
<path fill="#fffdf5" stroke="#d4a84b" stroke-width="1.2" stroke-dasharray="5,2" d="M20,-8C20,-8 114,-8 114,-8 120,-8 126,-14 126,-20 126,-20 126,-288 126,-288 126,-294 120,-300 114,-300 114,-300 20,-300 20,-300 14,-300 8,-294 8,-288 8,-288 8,-20 8,-20 8,-14 14,-8 20,-8"/>
<text text-anchor="start" x="27" y="-287.4" font-family="Helvetica,sans-Serif" font-weight="bold" font-size="12.00" fill="#555555">p(x)</text>
<text text-anchor="start" x="54" y="-287.4" font-family="Helvetica,sans-Serif" font-size="12.00" fill="#555555"> &#160;over X*</text>
</g>
<g id="clust2" class="cluster">
<title>cluster_target</title>
<path fill="#f5fff5" stroke="#4caf50" stroke-width="1.2" stroke-dasharray="5,2" d="M392,-74C392,-74 542,-74 542,-74 548,-74 554,-80 554,-86 554,-86 554,-195 554,-195 554,-201 548,-207 542,-207 542,-207 392,-207 392,-207 386,-207 380,-201 380,-195 380,-195 380,-86 380,-86 380,-80 386,-74 392,-74"/>
<text text-anchor="start" x="427.5" y="-194.4" font-family="Helvetica,sans-Serif" font-weight="bold" font-size="12.00" fill="#555555">p(y)</text>
<text text-anchor="start" x="454.5" y="-194.4" font-family="Helvetica,sans-Serif" font-size="12.00" fill="#555555"> &#160;over Y*</text>
</g>
<!-- x_a -->
<g id="node1" class="node">
<title>x_a</title>
<path fill="#fff3e0" stroke="#e6a123" d="M110,-238C110,-238 24,-238 24,-238 20,-238 16,-234 16,-230 16,-230 16,-222 16,-222 16,-218 20,-214 24,-214 24,-214 110,-214 110,-214 114,-214 118,-218 118,-222 118,-222 118,-230 118,-230 118,-234 114,-238 110,-238"/>
<text text-anchor="start" x="47" y="-223.2" font-family="Monospace" font-weight="bold" font-size="16.00">a</text>
<text text-anchor="start" x="57" y="-223.2" font-family="Monospace" font-size="11.00"> &#160;</text>
<text text-anchor="start" x="71" y="-223.2" font-family="Monospace" font-size="9.00" fill="#999999">.30</text>
</g>
<!-- y_A -->
<g id="node9" class="node">
<title>y_A</title>
<path fill="#e8f5e9" stroke="#4caf50" d="M536.67,-178C536.67,-178 397.33,-178 397.33,-178 392.67,-178 388,-173.33 388,-168.67 388,-168.67 388,-159.33 388,-159.33 388,-154.67 392.67,-150 397.33,-150 397.33,-150 536.67,-150 536.67,-150 541.33,-150 546,-154.67 546,-159.33 546,-159.33 546,-168.67 546,-168.67 546,-173.33 541.33,-178 536.67,-178"/>
<text text-anchor="start" x="445.5" y="-160" font-family="Monospace" font-weight="bold" font-size="20.00">A</text>
<text text-anchor="start" x="458.5" y="-160" font-family="Monospace" font-size="11.00"> &#160;</text>
<text text-anchor="start" x="472.5" y="-160" font-family="Monospace" font-size="9.00" fill="#999999">.53</text>
</g>
<!-- x_a&#45;&gt;y_A -->
<g id="edge1" class="edge">
<title>x_a&#45;&gt;y_A</title>
<path fill="none" stroke="#bbbbbb" stroke-width="0.7" d="M118.01,-226.43C161.17,-226.09 225.06,-223.85 280,-215 328.96,-207.11 383.52,-191.28 420.82,-179.34"/>
<polygon fill="#bbbbbb" stroke="#bbbbbb" stroke-width="0.7" points="421.45,-180.61 424.83,-178.05 420.59,-177.94 421.45,-180.61"/>
</g>
<!-- x_b -->
<g id="node2" class="node">
<title>x_b</title>
<path fill="#fff3e0" stroke="#e6a123" d="M98.67,-170C98.67,-170 35.33,-170 35.33,-170 31.67,-170 28,-166.33 28,-162.67 28,-162.67 28,-155.33 28,-155.33 28,-151.67 31.67,-148 35.33,-148 35.33,-148 98.67,-148 98.67,-148 102.33,-148 106,-151.67 106,-155.33 106,-155.33 106,-162.67 106,-162.67 106,-166.33 102.33,-170 98.67,-170"/>
<text text-anchor="start" x="47.5" y="-156.3" font-family="Monospace" font-weight="bold" font-size="14.00">b</text>
<text text-anchor="start" x="56.5" y="-156.3" font-family="Monospace" font-size="11.00"> &#160;</text>
<text text-anchor="start" x="70.5" y="-156.3" font-family="Monospace" font-size="9.00" fill="#999999">.20</text>
</g>
<!-- y_ε -->
<g id="node10" class="node">
<title>y_ε</title>
<path fill="#e8f5e9" stroke="#4caf50" d="M506.83,-138.5C506.83,-138.5 427.17,-138.5 427.17,-138.5 423.33,-138.5 419.5,-134.67 419.5,-130.83 419.5,-130.83 419.5,-123.17 419.5,-123.17 419.5,-119.33 423.33,-115.5 427.17,-115.5 427.17,-115.5 506.83,-115.5 506.83,-115.5 510.67,-115.5 514.5,-119.33 514.5,-123.17 514.5,-123.17 514.5,-130.83 514.5,-130.83 514.5,-134.67 510.67,-138.5 506.83,-138.5"/>
<text text-anchor="start" x="447" y="-124.5" font-family="Monospace" font-weight="bold" font-size="15.00">ε</text>
<text text-anchor="start" x="457" y="-124.5" font-family="Monospace" font-size="11.00"> &#160;</text>
<text text-anchor="start" x="471" y="-124.5" font-family="Monospace" font-size="9.00" fill="#999999">.27</text>
</g>
<!-- x_b&#45;&gt;y_ε -->
<g id="edge2" class="edge">
<title>x_b&#45;&gt;y_ε</title>
<path fill="none" stroke="#bbbbbb" stroke-width="0.7" d="M106.16,-155.93C178.22,-150.14 334.33,-137.59 415.17,-131.09"/>
<polygon fill="#bbbbbb" stroke="#bbbbbb" stroke-width="0.7" points="415.57,-132.46 419.44,-130.74 415.34,-129.67 415.57,-132.46"/>
</g>
<!-- x_ab -->
<g id="node3" class="node">
<title>x_ab</title>
<path fill="#fff3e0" stroke="#e6a123" d="M92.67,-203C92.67,-203 41.33,-203 41.33,-203 37.67,-203 34,-199.33 34,-195.67 34,-195.67 34,-188.33 34,-188.33 34,-184.67 37.67,-181 41.33,-181 41.33,-181 92.67,-181 92.67,-181 96.33,-181 100,-184.67 100,-188.33 100,-188.33 100,-195.67 100,-195.67 100,-199.33 96.33,-203 92.67,-203"/>
<text text-anchor="start" x="44" y="-189.6" font-family="Monospace" font-weight="bold" font-size="13.00">ab</text>
<text text-anchor="start" x="60" y="-189.6" font-family="Monospace" font-size="11.00"> &#160;</text>
<text text-anchor="start" x="74" y="-189.6" font-family="Monospace" font-size="9.00" fill="#999999">.15</text>
</g>
<!-- x_ab&#45;&gt;y_A -->
<g id="edge3" class="edge">
<title>x_ab&#45;&gt;y_A</title>
<path fill="none" stroke="#bbbbbb" stroke-width="0.7" d="M100.03,-188.27C131.92,-184.68 182.29,-179.3 226,-176 278.39,-172.04 337.33,-169.07 383.68,-167.08"/>
<polygon fill="#bbbbbb" stroke="#bbbbbb" stroke-width="0.7" points="383.91,-168.47 387.84,-166.9 383.79,-165.67 383.91,-168.47"/>
</g>
<!-- fst_label -->
<g id="node12" class="node">
<title>fst_label</title>
<path fill="lightgrey" stroke="transparent" d="M270.67,-209C270.67,-209 235.33,-209 235.33,-209 230.67,-209 226,-204.33 226,-199.67 226,-199.67 226,-190.33 226,-190.33 226,-185.67 230.67,-181 235.33,-181 235.33,-181 270.67,-181 270.67,-181 275.33,-181 280,-185.67 280,-190.33 280,-190.33 280,-199.67 280,-199.67 280,-204.33 275.33,-209 270.67,-209"/>
<text text-anchor="start" x="249.5" y="-196.6" font-family="Helvetica,sans-Serif" font-weight="bold" font-style="italic" font-size="13.00" fill="#4a86c8">f</text>
<text text-anchor="start" x="233.5" y="-186.8" font-family="Helvetica,sans-Serif" font-size="9.00" fill="#4a86c8">delete_b</text>
</g>
<!-- x_ab&#45;&gt;fst_label -->
<!-- x_aa -->
<g id="node4" class="node">
<title>x_aa</title>
<path fill="#fff3e0" stroke="#e6a123" d="M88.67,-71C88.67,-71 45.33,-71 45.33,-71 41.67,-71 38,-67.33 38,-63.67 38,-63.67 38,-56.33 38,-56.33 38,-52.67 41.67,-49 45.33,-49 45.33,-49 88.67,-49 88.67,-49 92.33,-49 96,-52.67 96,-56.33 96,-56.33 96,-63.67 96,-63.67 96,-67.33 92.33,-71 88.67,-71"/>
<text text-anchor="start" x="44" y="-57.9" font-family="Monospace" font-weight="bold" font-size="12.00">aa</text>
<text text-anchor="start" x="60" y="-57.9" font-family="Monospace" font-size="11.00"> &#160;</text>
<text text-anchor="start" x="74" y="-57.9" font-family="Monospace" font-size="9.00" fill="#999999">.10</text>
</g>
<!-- y_AA -->
<g id="node11" class="node">
<title>y_AA</title>
<path fill="#e8f5e9" stroke="#4caf50" d="M498.67,-104C498.67,-104 435.33,-104 435.33,-104 431.67,-104 428,-100.33 428,-96.67 428,-96.67 428,-89.33 428,-89.33 428,-85.67 431.67,-82 435.33,-82 435.33,-82 498.67,-82 498.67,-82 502.33,-82 506,-85.67 506,-89.33 506,-89.33 506,-96.67 506,-96.67 506,-100.33 502.33,-104 498.67,-104"/>
<text text-anchor="start" x="443.5" y="-90.3" font-family="Monospace" font-weight="bold" font-size="14.00">AA</text>
<text text-anchor="start" x="460.5" y="-90.3" font-family="Monospace" font-size="11.00"> &#160;</text>
<text text-anchor="start" x="474.5" y="-90.3" font-family="Monospace" font-size="9.00" fill="#999999">.20</text>
</g>
<!-- x_aa&#45;&gt;y_AA -->
<g id="edge4" class="edge">
<title>x_aa&#45;&gt;y_AA</title>
<path fill="none" stroke="#bbbbbb" stroke-width="0.7" d="M96.3,-62.35C165.22,-68.06 342.04,-82.72 423.61,-89.49"/>
<polygon fill="#bbbbbb" stroke="#bbbbbb" stroke-width="0.7" points="423.79,-90.91 427.9,-89.84 424.03,-88.11 423.79,-90.91"/>
</g>
<!-- x_ba -->
<g id="node5" class="node">
<title>x_ba</title>
<path fill="#fff3e0" stroke="#e6a123" d="M86.17,-271C86.17,-271 47.83,-271 47.83,-271 44.17,-271 40.5,-267.33 40.5,-263.67 40.5,-263.67 40.5,-256.33 40.5,-256.33 40.5,-252.67 44.17,-249 47.83,-249 47.83,-249 86.17,-249 86.17,-249 89.83,-249 93.5,-252.67 93.5,-256.33 93.5,-256.33 93.5,-263.67 93.5,-263.67 93.5,-267.33 89.83,-271 86.17,-271"/>
<text text-anchor="start" x="46.5" y="-257.9" font-family="Monospace" font-weight="bold" font-size="12.00">ba</text>
<text text-anchor="start" x="62.5" y="-257.9" font-family="Monospace" font-size="11.00"> &#160;</text>
<text text-anchor="start" x="76.5" y="-257.9" font-family="Monospace" font-size="9.00" fill="#999999">.8</text>
</g>
<!-- x_ba&#45;&gt;y_A -->
<g id="edge5" class="edge">
<title>x_ba&#45;&gt;y_A</title>
<path fill="none" stroke="#bbbbbb" stroke-width="0.7" d="M93.72,-257.24C133.88,-252.64 213.75,-242.24 280,-226 331.2,-213.45 388.51,-193.4 425.81,-179.51"/>
<polygon fill="#bbbbbb" stroke="#bbbbbb" stroke-width="0.7" points="426.55,-180.73 429.81,-178.02 425.57,-178.11 426.55,-180.73"/>
</g>
<!-- x_bb -->
<g id="node6" class="node">
<title>x_bb</title>
<path fill="#fff3e0" stroke="#e6a123" d="M85.17,-137C85.17,-137 48.83,-137 48.83,-137 45.17,-137 41.5,-133.33 41.5,-129.67 41.5,-129.67 41.5,-122.33 41.5,-122.33 41.5,-118.67 45.17,-115 48.83,-115 48.83,-115 85.17,-115 85.17,-115 88.83,-115 92.5,-118.67 92.5,-122.33 92.5,-122.33 92.5,-129.67 92.5,-129.67 92.5,-133.33 88.83,-137 85.17,-137"/>
<text text-anchor="start" x="47.5" y="-124.2" font-family="Monospace" font-weight="bold" font-size="11.00">bb</text>
<text text-anchor="start" x="61.5" y="-124.2" font-family="Monospace" font-size="11.00"> &#160;</text>
<text text-anchor="start" x="75.5" y="-124.2" font-family="Monospace" font-size="9.00" fill="#999999">.7</text>
</g>
<!-- x_bb&#45;&gt;y_ε -->
<g id="edge6" class="edge">
<title>x_bb&#45;&gt;y_ε</title>
<path fill="none" stroke="#bbbbbb" stroke-width="0.7" d="M92.6,-126.06C156.49,-126.22 328.76,-126.66 415.15,-126.87"/>
<polygon fill="#bbbbbb" stroke="#bbbbbb" stroke-width="0.7" points="415.19,-128.27 419.19,-126.88 415.2,-125.47 415.19,-128.27"/>
</g>
<!-- x_aab -->
<g id="node7" class="node">
<title>x_aab</title>
<path fill="#fff3e0" stroke="#e6a123" d="M88.67,-38C88.67,-38 45.33,-38 45.33,-38 41.67,-38 38,-34.33 38,-30.67 38,-30.67 38,-23.33 38,-23.33 38,-19.67 41.67,-16 45.33,-16 45.33,-16 88.67,-16 88.67,-16 92.33,-16 96,-19.67 96,-23.33 96,-23.33 96,-30.67 96,-30.67 96,-34.33 92.33,-38 88.67,-38"/>
<text text-anchor="start" x="44" y="-25.2" font-family="Monospace" font-weight="bold" font-size="11.00">aab</text>
<text text-anchor="start" x="65" y="-25.2" font-family="Monospace" font-size="11.00"> &#160;</text>
<text text-anchor="start" x="79" y="-25.2" font-family="Monospace" font-size="9.00" fill="#999999">.5</text>
</g>
<!-- x_aab&#45;&gt;y_AA -->
<g id="edge7" class="edge">
<title>x_aab&#45;&gt;y_AA</title>
<path fill="none" stroke="#bbbbbb" stroke-width="0.7" d="M96.3,-31.69C165.22,-43.12 342.04,-72.44 423.61,-85.97"/>
<polygon fill="#bbbbbb" stroke="#bbbbbb" stroke-width="0.7" points="423.72,-87.41 427.9,-86.68 424.18,-84.65 423.72,-87.41"/>
</g>
<!-- x_aba -->
<g id="node8" class="node">
<title>x_aba</title>
<path fill="#fff3e0" stroke="#e6a123" d="M88.67,-104C88.67,-104 45.33,-104 45.33,-104 41.67,-104 38,-100.33 38,-96.67 38,-96.67 38,-89.33 38,-89.33 38,-85.67 41.67,-82 45.33,-82 45.33,-82 88.67,-82 88.67,-82 92.33,-82 96,-85.67 96,-89.33 96,-89.33 96,-96.67 96,-96.67 96,-100.33 92.33,-104 88.67,-104"/>
<text text-anchor="start" x="44" y="-91.2" font-family="Monospace" font-weight="bold" font-size="11.00">aba</text>
<text text-anchor="start" x="65" y="-91.2" font-family="Monospace" font-size="11.00"> &#160;</text>
<text text-anchor="start" x="79" y="-91.2" font-family="Monospace" font-size="9.00" fill="#999999">.5</text>
</g>
<!-- x_aba&#45;&gt;y_AA -->
<g id="edge8" class="edge">
<title>x_aba&#45;&gt;y_AA</title>
<path fill="none" stroke="#bbbbbb" stroke-width="0.7" d="M96.3,-93C165.22,-93 342.04,-93 423.61,-93"/>
<polygon fill="#bbbbbb" stroke="#bbbbbb" stroke-width="0.7" points="423.9,-94.4 427.9,-93 423.9,-91.6 423.9,-94.4"/>
</g>
<!-- fst_label&#45;&gt;y_A -->
</g>
</svg>
