<?xml version="1.0" encoding="UTF-8" standalone="no"?>
<!DOCTYPE svg PUBLIC "-//W3C//DTD SVG 1.1//EN"
 "http://www.w3.org/Graphics/SVG/1.1/DTD/svg11.dtd">
<!-- Generated by graphviz version 2.43.0 (0)
 -->
<!-- Title: %3 Pages: 1 -->
<svg
 viewBox="0.00 0.00 449.53 386.33" xmlns="http://www.w3.org/2000/svg" xmlns:xlink="http://www.w3.org/1999/xlink">
<g id="graph0" class="graph" transform="scale(1 1) rotate(0) translate(21.6 364.73)">
<title>%3</title>
<!-- x0 -->
<g id="node1" class="node">
<title>x0</title>
<path fill="#fff8f0" stroke="#d9c5a0" stroke-width="0.6" d="M109.52,-316.13C109.52,-316.13 10.18,-316.13 10.18,-316.13 7.02,-316.13 3.85,-312.96 3.85,-309.79 3.85,-309.79 3.85,-303.46 3.85,-303.46 3.85,-300.29 7.02,-297.13 10.18,-297.13 10.18,-297.13 109.52,-297.13 109.52,-297.13 112.68,-297.13 115.85,-300.29 115.85,-303.46 115.85,-303.46 115.85,-309.79 115.85,-309.79 115.85,-312.96 112.68,-316.13 109.52,-316.13"/>
<text text-anchor="start" x="9.85" y="-304.83" font-family="Helvetica,sans-Serif" font-size="11.00">the brown fox</text>
<text text-anchor="start" x="86.85" y="-304.83" font-family="Helvetica,sans-Serif" font-size="7.00" fill="#aaaaaa"> 0.148</text>
</g>
<!-- y0 -->
<g id="node14" class="node">
<title>y0</title>
<path fill="#f0f7f0" stroke="#a0c9a0" stroke-width="0.6" d="M399.99,-284.61C399.99,-284.61 268.66,-284.61 268.66,-284.61 265.49,-284.61 262.33,-281.44 262.33,-278.28 262.33,-278.28 262.33,-271.94 262.33,-271.94 262.33,-268.78 265.49,-265.61 268.66,-265.61 268.66,-265.61 399.99,-265.61 399.99,-265.61 403.16,-265.61 406.33,-268.78 406.33,-271.94 406.33,-271.94 406.33,-278.28 406.33,-278.28 406.33,-281.44 403.16,-284.61 399.99,-284.61"/>
<text text-anchor="start" x="281.83" y="-273.01" font-family="Helvetica,sans-Serif" font-size="12.00">the brown fox</text>
<text text-anchor="start" x="363.83" y="-273.01" font-family="Helvetica,sans-Serif" font-size="7.00" fill="#aaaaaa"> 0.274</text>
</g>
<!-- x0&#45;&gt;y0 -->
<g id="edge1" class="edge">
<title>x0&#45;&gt;y0</title>
<path fill="none" stroke="#cccccc" stroke-width="0.5" d="M116.06,-300.17C157.34,-295.43 213.85,-288.94 259.03,-283.76"/>
<polygon fill="#cccccc" stroke="#cccccc" stroke-width="0.5" points="259.4,-284.77 262.26,-283.38 259.16,-282.68 259.4,-284.77"/>
</g>
<!-- x1 -->
<g id="node2" class="node">
<title>x1</title>
<path fill="#fff8f0" stroke="#d9c5a0" stroke-width="0.6" d="M173.76,-289.12C173.76,-289.12 81.43,-289.12 81.43,-289.12 78.26,-289.12 75.09,-285.95 75.09,-282.79 75.09,-282.79 75.09,-276.45 75.09,-276.45 75.09,-273.29 78.26,-270.12 81.43,-270.12 81.43,-270.12 173.76,-270.12 173.76,-270.12 176.93,-270.12 180.09,-273.29 180.09,-276.45 180.09,-276.45 180.09,-282.79 180.09,-282.79 180.09,-285.95 176.93,-289.12 173.76,-289.12"/>
<text text-anchor="start" x="81.09" y="-278.12" font-family="Helvetica,sans-Serif" font-size="10.00">The brown fox</text>
<text text-anchor="start" x="151.09" y="-278.12" font-family="Helvetica,sans-Serif" font-size="7.00" fill="#aaaaaa"> 0.117</text>
</g>
<!-- x1&#45;&gt;y0 -->
<g id="edge2" class="edge">
<title>x1&#45;&gt;y0</title>
<path fill="none" stroke="#cccccc" stroke-width="0.5" d="M180.3,-278.47C204.21,-277.95 232.92,-277.32 259.05,-276.75"/>
<polygon fill="#cccccc" stroke="#cccccc" stroke-width="0.5" points="259.25,-277.8 262.22,-276.68 259.2,-275.7 259.25,-277.8"/>
</g>
<!-- x2 -->
<g id="node3" class="node">
<title>x2</title>
<path fill="#fff8f0" stroke="#d9c5a0" stroke-width="0.6" d="M96.67,-262.11C96.67,-262.11 6.33,-262.11 6.33,-262.11 3.17,-262.11 0,-258.94 0,-255.78 0,-255.78 0,-249.44 0,-249.44 0,-246.28 3.17,-243.11 6.33,-243.11 6.33,-243.11 96.67,-243.11 96.67,-243.11 99.83,-243.11 103,-246.28 103,-249.44 103,-249.44 103,-255.78 103,-255.78 103,-258.94 99.83,-262.11 96.67,-262.11"/>
<text text-anchor="start" x="6" y="-251.71" font-family="Helvetica,sans-Serif" font-size="8.00">THE BROWN FOX</text>
<text text-anchor="start" x="74" y="-251.71" font-family="Helvetica,sans-Serif" font-size="7.00" fill="#aaaaaa"> 0.009</text>
</g>
<!-- x2&#45;&gt;y0 -->
<g id="edge3" class="edge">
<title>x2&#45;&gt;y0</title>
<path fill="none" stroke="#cccccc" stroke-width="0.5" d="M103.05,-256.71C146.62,-260.18 209.64,-265.19 258.89,-269.11"/>
<polygon fill="#cccccc" stroke="#cccccc" stroke-width="0.5" points="259.04,-270.17 262.11,-269.36 259.21,-268.08 259.04,-270.17"/>
</g>
<!-- x3 -->
<g id="node4" class="node">
<title>x3</title>
<path fill="#fff8f0" stroke="#d9c5a0" stroke-width="0.6" d="M143.67,-235.1C143.67,-235.1 70.33,-235.1 70.33,-235.1 67.17,-235.1 64,-231.93 64,-228.76 64,-228.76 64,-222.43 64,-222.43 64,-219.26 67.17,-216.1 70.33,-216.1 70.33,-216.1 143.67,-216.1 143.67,-216.1 146.83,-216.1 150,-219.26 150,-222.43 150,-222.43 150,-228.76 150,-228.76 150,-231.93 146.83,-235.1 143.67,-235.1"/>
<text text-anchor="start" x="70" y="-224.1" font-family="Helvetica,sans-Serif" font-size="10.00">a lazy dog</text>
<text text-anchor="start" x="121" y="-224.1" font-family="Helvetica,sans-Serif" font-size="7.00" fill="#aaaaaa"> 0.106</text>
</g>
<!-- y1 -->
<g id="node15" class="node">
<title>y1</title>
<path fill="#f0f7f0" stroke="#a0c9a0" stroke-width="0.6" d="M386.56,-228.63C386.56,-228.63 276.23,-228.63 276.23,-228.63 273.06,-228.63 269.89,-225.46 269.89,-222.29 269.89,-222.29 269.89,-215.96 269.89,-215.96 269.89,-212.79 273.06,-209.63 276.23,-209.63 276.23,-209.63 386.56,-209.63 386.56,-209.63 389.73,-209.63 392.89,-212.79 392.89,-215.96 392.89,-215.96 392.89,-222.29 392.89,-222.29 392.89,-225.46 389.73,-228.63 386.56,-228.63"/>
<text text-anchor="start" x="290.89" y="-217.33" font-family="Helvetica,sans-Serif" font-size="11.00">a lazy dog</text>
<text text-anchor="start" x="348.89" y="-217.33" font-family="Helvetica,sans-Serif" font-size="7.00" fill="#aaaaaa"> 0.185</text>
</g>
<!-- x3&#45;&gt;y1 -->
<g id="edge4" class="edge">
<title>x3&#45;&gt;y1</title>
<path fill="none" stroke="#cccccc" stroke-width="0.5" d="M150.27,-224.35C183.22,-223.4 229.12,-222.08 266.47,-221"/>
<polygon fill="#cccccc" stroke="#cccccc" stroke-width="0.5" points="266.63,-222.05 269.6,-220.91 266.57,-219.95 266.63,-222.05"/>
</g>
<!-- x4 -->
<g id="node5" class="node">
<title>x4</title>
<path fill="#fff8f0" stroke="#d9c5a0" stroke-width="0.6" d="M99.73,-208.09C99.73,-208.09 25.4,-208.09 25.4,-208.09 22.23,-208.09 19.06,-204.93 19.06,-201.76 19.06,-201.76 19.06,-195.43 19.06,-195.43 19.06,-192.26 22.23,-189.09 25.4,-189.09 25.4,-189.09 99.73,-189.09 99.73,-189.09 102.9,-189.09 106.06,-192.26 106.06,-195.43 106.06,-195.43 106.06,-201.76 106.06,-201.76 106.06,-204.93 102.9,-208.09 99.73,-208.09"/>
<text text-anchor="start" x="25.06" y="-197.09" font-family="Helvetica,sans-Serif" font-size="10.00">A lazy dog</text>
<text text-anchor="start" x="77.06" y="-197.09" font-family="Helvetica,sans-Serif" font-size="7.00" fill="#aaaaaa"> 0.079</text>
</g>
<!-- x4&#45;&gt;y1 -->
<g id="edge5" class="edge">
<title>x4&#45;&gt;y1</title>
<path fill="none" stroke="#cccccc" stroke-width="0.5" d="M106.35,-201.94C149.81,-205.26 216.93,-210.38 266.56,-214.18"/>
<polygon fill="#cccccc" stroke="#cccccc" stroke-width="0.5" points="266.73,-215.24 269.8,-214.42 266.89,-213.15 266.73,-215.24"/>
</g>
<!-- x5 -->
<g id="node6" class="node">
<title>x5</title>
<path fill="#fff8f0" stroke="#d9c5a0" stroke-width="0.6" d="M160.69,-181.08C160.69,-181.08 66.35,-181.08 66.35,-181.08 63.19,-181.08 60.02,-177.91 60.02,-174.74 60.02,-174.74 60.02,-168.41 60.02,-168.41 60.02,-165.24 63.19,-162.08 66.35,-162.08 66.35,-162.08 160.69,-162.08 160.69,-162.08 163.85,-162.08 167.02,-165.24 167.02,-168.41 167.02,-168.41 167.02,-174.74 167.02,-174.74 167.02,-177.91 163.85,-181.08 160.69,-181.08"/>
<text text-anchor="start" x="66.02" y="-170.08" font-family="Helvetica,sans-Serif" font-size="10.00">jumped over it</text>
<text text-anchor="start" x="138.02" y="-170.08" font-family="Helvetica,sans-Serif" font-size="7.00" fill="#aaaaaa"> 0.094</text>
</g>
<!-- y3 -->
<g id="node17" class="node">
<title>y3</title>
<path fill="#f0f7f0" stroke="#a0c9a0" stroke-width="0.6" d="M349.2,-99.22C349.2,-99.22 254.86,-99.22 254.86,-99.22 251.7,-99.22 248.53,-96.05 248.53,-92.89 248.53,-92.89 248.53,-86.55 248.53,-86.55 248.53,-83.39 251.7,-80.22 254.86,-80.22 254.86,-80.22 349.2,-80.22 349.2,-80.22 352.36,-80.22 355.53,-83.39 355.53,-86.55 355.53,-86.55 355.53,-92.89 355.53,-92.89 355.53,-96.05 352.36,-99.22 349.2,-99.22"/>
<text text-anchor="start" x="254.53" y="-88.22" font-family="Helvetica,sans-Serif" font-size="10.00">jumped over it</text>
<text text-anchor="start" x="326.53" y="-88.22" font-family="Helvetica,sans-Serif" font-size="7.00" fill="#aaaaaa"> 0.110</text>
</g>
<!-- x5&#45;&gt;y3 -->
<g id="edge6" class="edge">
<title>x5&#45;&gt;y3</title>
<path fill="none" stroke="#cccccc" stroke-width="0.5" d="M135.51,-162.03C170.75,-146.73 239.66,-116.8 276.83,-100.66"/>
<polygon fill="#cccccc" stroke="#cccccc" stroke-width="0.5" points="277.55,-101.49 279.89,-99.34 276.72,-99.57 277.55,-101.49"/>
</g>
<!-- x6 -->
<g id="node7" class="node">
<title>x6</title>
<path fill="#fff8f0" stroke="#d9c5a0" stroke-width="0.6" d="M95.18,-154.07C95.18,-154.07 12.85,-154.07 12.85,-154.07 9.68,-154.07 6.52,-150.9 6.52,-147.74 6.52,-147.74 6.52,-141.4 6.52,-141.4 6.52,-138.24 9.68,-135.07 12.85,-135.07 12.85,-135.07 95.18,-135.07 95.18,-135.07 98.35,-135.07 101.52,-138.24 101.52,-141.4 101.52,-141.4 101.52,-147.74 101.52,-147.74 101.52,-150.9 98.35,-154.07 95.18,-154.07"/>
<text text-anchor="start" x="12.52" y="-143.67" font-family="Helvetica,sans-Serif" font-size="8.00">Jumped Over It</text>
<text text-anchor="start" x="72.52" y="-143.67" font-family="Helvetica,sans-Serif" font-size="7.00" fill="#aaaaaa"> 0.016</text>
</g>
<!-- x6&#45;&gt;y3 -->
<g id="edge7" class="edge">
<title>x6&#45;&gt;y3</title>
<path fill="none" stroke="#cccccc" stroke-width="0.5" d="M101.61,-139.36C119.24,-137.07 139.33,-134.03 157.43,-130.26 196.34,-122.15 240.19,-109.32 269.29,-100.27"/>
<polygon fill="#cccccc" stroke="#cccccc" stroke-width="0.5" points="269.86,-101.19 272.41,-99.3 269.24,-99.19 269.86,-101.19"/>
</g>
<!-- x7 -->
<g id="node8" class="node">
<title>x7</title>
<path fill="#fff8f0" stroke="#d9c5a0" stroke-width="0.6" d="M147.9,-127.06C147.9,-127.06 58.56,-127.06 58.56,-127.06 55.4,-127.06 52.23,-123.89 52.23,-120.72 52.23,-120.72 52.23,-114.39 52.23,-114.39 52.23,-111.22 55.4,-108.06 58.56,-108.06 58.56,-108.06 147.9,-108.06 147.9,-108.06 151.06,-108.06 154.23,-111.22 154.23,-114.39 154.23,-114.39 154.23,-120.72 154.23,-120.72 154.23,-123.89 151.06,-127.06 147.9,-127.06"/>
<text text-anchor="start" x="58.23" y="-116.06" font-family="Helvetica,sans-Serif" font-size="10.00">and ran away</text>
<text text-anchor="start" x="125.23" y="-116.06" font-family="Helvetica,sans-Serif" font-size="7.00" fill="#aaaaaa"> 0.072</text>
</g>
<!-- y2 -->
<g id="node16" class="node">
<title>y2</title>
<path fill="#f0f7f0" stroke="#a0c9a0" stroke-width="0.6" d="M389.07,-162.38C389.07,-162.38 294.74,-162.38 294.74,-162.38 291.57,-162.38 288.41,-159.21 288.41,-156.05 288.41,-156.05 288.41,-149.71 288.41,-149.71 288.41,-146.55 291.57,-143.38 294.74,-143.38 294.74,-143.38 389.07,-143.38 389.07,-143.38 392.24,-143.38 395.41,-146.55 395.41,-149.71 395.41,-149.71 395.41,-156.05 395.41,-156.05 395.41,-159.21 392.24,-162.38 389.07,-162.38"/>
<text text-anchor="start" x="296.91" y="-151.38" font-family="Helvetica,sans-Serif" font-size="10.00">and ran away</text>
<text text-anchor="start" x="363.91" y="-151.38" font-family="Helvetica,sans-Serif" font-size="7.00" fill="#aaaaaa"> 0.115</text>
</g>
<!-- x7&#45;&gt;y2 -->
<g id="edge8" class="edge">
<title>x7&#45;&gt;y2</title>
<path fill="none" stroke="#cccccc" stroke-width="0.5" d="M154.43,-125.14C192.8,-130.81 245.3,-138.58 284.99,-144.46"/>
<polygon fill="#cccccc" stroke="#cccccc" stroke-width="0.5" points="285.18,-145.55 288.31,-144.95 285.49,-143.47 285.18,-145.55"/>
</g>
<!-- x8 -->
<g id="node9" class="node">
<title>x8</title>
<path fill="#fff8f0" stroke="#d9c5a0" stroke-width="0.6" d="M115.07,-100.05C115.07,-100.05 29.74,-100.05 29.74,-100.05 26.57,-100.05 23.4,-96.88 23.4,-93.71 23.4,-93.71 23.4,-87.38 23.4,-87.38 23.4,-84.21 26.57,-81.05 29.74,-81.05 29.74,-81.05 115.07,-81.05 115.07,-81.05 118.24,-81.05 121.4,-84.21 121.4,-87.38 121.4,-87.38 121.4,-93.71 121.4,-93.71 121.4,-96.88 118.24,-100.05 115.07,-100.05"/>
<text text-anchor="start" x="29.4" y="-89.35" font-family="Helvetica,sans-Serif" font-size="9.00">And ran away</text>
<text text-anchor="start" x="92.4" y="-89.35" font-family="Helvetica,sans-Serif" font-size="7.00" fill="#aaaaaa"> 0.043</text>
</g>
<!-- x8&#45;&gt;y2 -->
<g id="edge9" class="edge">
<title>x8&#45;&gt;y2</title>
<path fill="none" stroke="#cccccc" stroke-width="0.5" d="M121.55,-98.06C133.34,-100.07 145.87,-102.38 157.43,-104.86 209.37,-115.97 268.69,-132.02 305.72,-142.45"/>
<polygon fill="#cccccc" stroke="#cccccc" stroke-width="0.5" points="305.62,-143.52 308.79,-143.32 306.19,-141.49 305.62,-143.52"/>
</g>
<!-- x9 -->
<g id="node10" class="node">
<title>x9</title>
<path fill="#fff8f0" stroke="#d9c5a0" stroke-width="0.6" d="M163.58,-73.02C163.58,-73.02 83.24,-73.02 83.24,-73.02 80.08,-73.02 76.91,-69.86 76.91,-66.69 76.91,-66.69 76.91,-60.36 76.91,-60.36 76.91,-57.19 80.08,-54.02 83.24,-54.02 83.24,-54.02 163.58,-54.02 163.58,-54.02 166.74,-54.02 169.91,-57.19 169.91,-60.36 169.91,-60.36 169.91,-66.69 169.91,-66.69 169.91,-69.86 166.74,-73.02 163.58,-73.02"/>
<text text-anchor="start" x="82.91" y="-62.32" font-family="Helvetica,sans-Serif" font-size="9.00">is not so bad</text>
<text text-anchor="start" x="140.91" y="-62.32" font-family="Helvetica,sans-Serif" font-size="7.00" fill="#aaaaaa"> 0.063</text>
</g>
<!-- y4 -->
<g id="node18" class="node">
<title>y4</title>
<path fill="#f0f7f0" stroke="#a0c9a0" stroke-width="0.6" d="M358.08,-56.86C358.08,-56.86 271.75,-56.86 271.75,-56.86 268.58,-56.86 265.42,-53.69 265.42,-50.53 265.42,-50.53 265.42,-44.19 265.42,-44.19 265.42,-41.03 268.58,-37.86 271.75,-37.86 271.75,-37.86 358.08,-37.86 358.08,-37.86 361.25,-37.86 364.42,-41.03 364.42,-44.19 364.42,-44.19 364.42,-50.53 364.42,-50.53 364.42,-53.69 361.25,-56.86 358.08,-56.86"/>
<text text-anchor="start" x="274.42" y="-46.16" font-family="Helvetica,sans-Serif" font-size="9.00">is not so bad</text>
<text text-anchor="start" x="332.42" y="-46.16" font-family="Helvetica,sans-Serif" font-size="7.00" fill="#aaaaaa"> 0.085</text>
</g>
<!-- x9&#45;&gt;y4 -->
<g id="edge10" class="edge">
<title>x9&#45;&gt;y4</title>
<path fill="none" stroke="#cccccc" stroke-width="0.5" d="M170.26,-59.57C198.04,-57.22 233.32,-54.25 262.09,-51.82"/>
<polygon fill="#cccccc" stroke="#cccccc" stroke-width="0.5" points="262.3,-52.85 265.21,-51.55 262.13,-50.76 262.3,-52.85"/>
</g>
<!-- x10 -->
<g id="node11" class="node">
<title>x10</title>
<path fill="#fff8f0" stroke="#d9c5a0" stroke-width="0.6" d="M93.78,-46.02C93.78,-46.02 16.44,-46.02 16.44,-46.02 13.28,-46.02 10.11,-42.85 10.11,-39.69 10.11,-39.69 10.11,-33.35 10.11,-33.35 10.11,-30.19 13.28,-27.02 16.44,-27.02 16.44,-27.02 93.78,-27.02 93.78,-27.02 96.94,-27.02 100.11,-30.19 100.11,-33.35 100.11,-33.35 100.11,-39.69 100.11,-39.69 100.11,-42.85 96.94,-46.02 93.78,-46.02"/>
<text text-anchor="start" x="16.11" y="-35.62" font-family="Helvetica,sans-Serif" font-size="8.00">Is Not So Bad</text>
<text text-anchor="start" x="71.11" y="-35.62" font-family="Helvetica,sans-Serif" font-size="7.00" fill="#aaaaaa"> 0.022</text>
</g>
<!-- x10&#45;&gt;y4 -->
<g id="edge11" class="edge">
<title>x10&#45;&gt;y4</title>
<path fill="none" stroke="#cccccc" stroke-width="0.5" d="M100.37,-38.41C145.46,-40.29 214.67,-43.18 262.21,-45.16"/>
<polygon fill="#cccccc" stroke="#cccccc" stroke-width="0.5" points="262.27,-46.21 265.31,-45.29 262.36,-44.12 262.27,-46.21"/>
</g>
<!-- xdots1 -->
<g id="node12" class="node">
<title>xdots1</title>
<path fill="lightgrey" stroke="transparent" d="M104.32,-343.13C104.32,-343.13 62.99,-343.13 62.99,-343.13 59.82,-343.13 56.66,-339.96 56.66,-336.8 56.66,-336.8 56.66,-330.46 56.66,-330.46 56.66,-327.3 59.82,-324.13 62.99,-324.13 62.99,-324.13 104.32,-324.13 104.32,-324.13 107.49,-324.13 110.66,-327.3 110.66,-330.46 110.66,-330.46 110.66,-336.8 110.66,-336.8 110.66,-339.96 107.49,-343.13 104.32,-343.13"/>
<text text-anchor="start" x="77.66" y="-330.53" font-family="Helvetica,sans-Serif" font-size="12.00" fill="#bbbbbb">...</text>
</g>
<!-- xdots2 -->
<g id="node13" class="node">
<title>xdots2</title>
<path fill="lightgrey" stroke="transparent" d="M107.96,-19C107.96,-19 66.62,-19 66.62,-19 63.46,-19 60.29,-15.83 60.29,-12.67 60.29,-12.67 60.29,-6.33 60.29,-6.33 60.29,-3.17 63.46,0 66.62,0 66.62,0 107.96,0 107.96,0 111.12,0 114.29,-3.17 114.29,-6.33 114.29,-6.33 114.29,-12.67 114.29,-12.67 114.29,-15.83 111.12,-19 107.96,-19"/>
<text text-anchor="start" x="81.29" y="-6.4" font-family="Helvetica,sans-Serif" font-size="12.00" fill="#bbbbbb">...</text>
</g>
<!-- ydots1 -->
<g id="node19" class="node">
<title>ydots1</title>
<path fill="lightgrey" stroke="transparent" d="M344.62,-320.53C344.62,-320.53 303.29,-320.53 303.29,-320.53 300.12,-320.53 296.95,-317.37 296.95,-314.2 296.95,-314.2 296.95,-307.87 296.95,-307.87 296.95,-304.7 300.12,-301.53 303.29,-301.53 303.29,-301.53 344.62,-301.53 344.62,-301.53 347.79,-301.53 350.95,-304.7 350.95,-307.87 350.95,-307.87 350.95,-314.2 350.95,-314.2 350.95,-317.37 347.79,-320.53 344.62,-320.53"/>
<text text-anchor="start" x="317.95" y="-307.93" font-family="Helvetica,sans-Serif" font-size="12.00" fill="#bbbbbb">...</text>
</g>
<!-- ydots2 -->
<g id="node20" class="node">
<title>ydots2</title>
<path fill="lightgrey" stroke="transparent" d="M322.79,-26.58C322.79,-26.58 281.46,-26.58 281.46,-26.58 278.29,-26.58 275.13,-23.41 275.13,-20.25 275.13,-20.25 275.13,-13.91 275.13,-13.91 275.13,-10.75 278.29,-7.58 281.46,-7.58 281.46,-7.58 322.79,-7.58 322.79,-7.58 325.96,-7.58 329.13,-10.75 329.13,-13.91 329.13,-13.91 329.13,-20.25 329.13,-20.25 329.13,-23.41 325.96,-26.58 322.79,-26.58"/>
<text text-anchor="start" x="296.13" y="-13.98" font-family="Helvetica,sans-Serif" font-size="12.00" fill="#bbbbbb">...</text>
</g>
<!-- fst_label -->
<g id="node21" class="node">
<title>fst_label</title>
<path fill="lightgrey" stroke="transparent" d="M257.7,-201.61C257.7,-201.61 181.36,-201.61 181.36,-201.61 178.2,-201.61 175.03,-198.44 175.03,-195.27 175.03,-195.27 175.03,-188.94 175.03,-188.94 175.03,-185.77 178.2,-182.61 181.36,-182.61 181.36,-182.61 257.7,-182.61 257.7,-182.61 260.86,-182.61 264.03,-185.77 264.03,-188.94 264.03,-188.94 264.03,-195.27 264.03,-195.27 264.03,-198.44 260.86,-201.61 257.7,-201.61"/>
<text text-anchor="start" x="181.03" y="-190.31" font-family="Helvetica,sans-Serif" font-style="italic" font-size="11.00" fill="#555555">f</text>
<text text-anchor="start" x="185.03" y="-190.31" font-family="Helvetica,sans-Serif" font-size="11.00" fill="#555555"> = lowercase</text>
</g>
</g>
</svg>
