<?xml version="1.0" encoding="UTF-8" standalone="no"?>
<!DOCTYPE svg PUBLIC "-//W3C//DTD SVG 1.1//EN"
 "http://www.w3.org/Graphics/SVG/1.1/DTD/svg11.dtd">
<!-- Generated by graphviz version 2.43.0 (0)
 -->
<!-- Title: %3 Pages: 1 -->
<svg
 viewBox="0.00 0.00 467.35 411.73" xmlns="http://www.w3.org/2000/svg" xmlns:xlink="http://www.w3.org/1999/xlink">
<g id="graph0" class="graph" transform="scale(1 1) rotate(0) translate(21.6 390.13)">
<title>%3</title>
<!-- x0 -->
<g id="node1" class="node">
<title>x0</title>
<path fill="#fff8f0" stroke="#d9c5a0" stroke-width="0.6" d="M124.37,-340.43C124.37,-340.43 11.04,-340.43 11.04,-340.43 7.87,-340.43 4.71,-337.26 4.71,-334.1 4.71,-334.1 4.71,-327.76 4.71,-327.76 4.71,-324.6 7.87,-321.43 11.04,-321.43 11.04,-321.43 124.37,-321.43 124.37,-321.43 127.54,-321.43 130.71,-324.6 130.71,-327.76 130.71,-327.76 130.71,-334.1 130.71,-334.1 130.71,-337.26 127.54,-340.43 124.37,-340.43"/>
<text text-anchor="start" x="10.71" y="-329.13" font-family="Helvetica,sans-Serif" font-size="11.00">it is cold outside</text>
<text text-anchor="start" x="101.71" y="-329.13" font-family="Helvetica,sans-Serif" font-size="7.00" fill="#aaaaaa"> 0.148</text>
</g>
<!-- y0 -->
<g id="node14" class="node">
<title>y0</title>
<path fill="#f0f7f0" stroke="#a0c9a0" stroke-width="0.6" d="M417.82,-299.64C417.82,-299.64 286.48,-299.64 286.48,-299.64 283.32,-299.64 280.15,-296.47 280.15,-293.31 280.15,-293.31 280.15,-286.97 280.15,-286.97 280.15,-283.81 283.32,-280.64 286.48,-280.64 286.48,-280.64 417.82,-280.64 417.82,-280.64 420.98,-280.64 424.15,-283.81 424.15,-286.97 424.15,-286.97 424.15,-293.31 424.15,-293.31 424.15,-296.47 420.98,-299.64 417.82,-299.64"/>
<text text-anchor="start" x="292.15" y="-288.04" font-family="Helvetica,sans-Serif" font-size="12.00">it is cold outside</text>
<text text-anchor="start" x="389.15" y="-288.04" font-family="Helvetica,sans-Serif" font-size="7.00" fill="#aaaaaa"> 0.274</text>
</g>
<!-- x0&#45;&gt;y0 -->
<g id="edge1" class="edge">
<title>x0&#45;&gt;y0</title>
<path fill="none" stroke="#cccccc" stroke-width="0.5" d="M130.95,-324.63C151.82,-322.36 175.13,-319.61 196.38,-316.62 230.06,-311.89 267.65,-305.53 297.47,-300.23"/>
<polygon fill="#cccccc" stroke="#cccccc" stroke-width="0.5" points="297.93,-301.21 300.7,-299.65 297.56,-299.15 297.93,-301.21"/>
</g>
<!-- x1 -->
<g id="node2" class="node">
<title>x1</title>
<path fill="#fff8f0" stroke="#d9c5a0" stroke-width="0.6" d="M186.85,-313.42C186.85,-313.42 83.52,-313.42 83.52,-313.42 80.35,-313.42 77.18,-310.25 77.18,-307.09 77.18,-307.09 77.18,-300.75 77.18,-300.75 77.18,-297.59 80.35,-294.42 83.52,-294.42 83.52,-294.42 186.85,-294.42 186.85,-294.42 190.02,-294.42 193.18,-297.59 193.18,-300.75 193.18,-300.75 193.18,-307.09 193.18,-307.09 193.18,-310.25 190.02,-313.42 186.85,-313.42"/>
<text text-anchor="start" x="83.18" y="-302.42" font-family="Helvetica,sans-Serif" font-size="10.00">It is cold outside</text>
<text text-anchor="start" x="164.18" y="-302.42" font-family="Helvetica,sans-Serif" font-size="7.00" fill="#aaaaaa"> 0.117</text>
</g>
<!-- x1&#45;&gt;y0 -->
<g id="edge2" class="edge">
<title>x1&#45;&gt;y0</title>
<path fill="none" stroke="#cccccc" stroke-width="0.5" d="M193.33,-300.23C218.9,-298.6 249.26,-296.67 276.56,-294.94"/>
<polygon fill="#cccccc" stroke="#cccccc" stroke-width="0.5" points="276.95,-295.97 279.88,-294.73 276.81,-293.87 276.95,-295.97"/>
</g>
<!-- x2 -->
<g id="node3" class="node">
<title>x2</title>
<path fill="#fff8f0" stroke="#d9c5a0" stroke-width="0.6" d="M108.67,-276.76C108.67,-276.76 6.33,-276.76 6.33,-276.76 3.17,-276.76 0,-273.59 0,-270.43 0,-270.43 0,-264.09 0,-264.09 0,-260.93 3.17,-257.76 6.33,-257.76 6.33,-257.76 108.67,-257.76 108.67,-257.76 111.83,-257.76 115,-260.93 115,-264.09 115,-264.09 115,-270.43 115,-270.43 115,-273.59 111.83,-276.76 108.67,-276.76"/>
<text text-anchor="start" x="6" y="-266.36" font-family="Helvetica,sans-Serif" font-size="8.00">IT IS COLD OUTSIDE</text>
<text text-anchor="start" x="86" y="-266.36" font-family="Helvetica,sans-Serif" font-size="7.00" fill="#aaaaaa"> 0.009</text>
</g>
<!-- x2&#45;&gt;y0 -->
<g id="edge3" class="edge">
<title>x2&#45;&gt;y0</title>
<path fill="none" stroke="#cccccc" stroke-width="0.5" d="M115.01,-271.73C161.24,-275.32 226.53,-280.39 276.91,-284.3"/>
<polygon fill="#cccccc" stroke="#cccccc" stroke-width="0.5" points="276.83,-285.34 279.9,-284.53 276.99,-283.25 276.83,-285.34"/>
</g>
<!-- x3 -->
<g id="node4" class="node">
<title>x3</title>
<path fill="#fff8f0" stroke="#d9c5a0" stroke-width="0.6" d="M162.95,-247.39C162.95,-247.39 64.61,-247.39 64.61,-247.39 61.45,-247.39 58.28,-244.22 58.28,-241.05 58.28,-241.05 58.28,-234.72 58.28,-234.72 58.28,-231.55 61.45,-228.39 64.61,-228.39 64.61,-228.39 162.95,-228.39 162.95,-228.39 166.11,-228.39 169.28,-231.55 169.28,-234.72 169.28,-234.72 169.28,-241.05 169.28,-241.05 169.28,-244.22 166.11,-247.39 162.95,-247.39"/>
<text text-anchor="start" x="64.28" y="-236.39" font-family="Helvetica,sans-Serif" font-size="10.00">she likes coffee</text>
<text text-anchor="start" x="140.28" y="-236.39" font-family="Helvetica,sans-Serif" font-size="7.00" fill="#aaaaaa"> 0.106</text>
</g>
<!-- y1 -->
<g id="node15" class="node">
<title>y1</title>
<path fill="#f0f7f0" stroke="#a0c9a0" stroke-width="0.6" d="M386.17,-231.61C386.17,-231.61 275.84,-231.61 275.84,-231.61 272.67,-231.61 269.51,-228.45 269.51,-225.28 269.51,-225.28 269.51,-218.95 269.51,-218.95 269.51,-215.78 272.67,-212.61 275.84,-212.61 275.84,-212.61 386.17,-212.61 386.17,-212.61 389.34,-212.61 392.51,-215.78 392.51,-218.95 392.51,-218.95 392.51,-225.28 392.51,-225.28 392.51,-228.45 389.34,-231.61 386.17,-231.61"/>
<text text-anchor="start" x="276.51" y="-220.31" font-family="Helvetica,sans-Serif" font-size="11.00">she likes coffee</text>
<text text-anchor="start" x="362.51" y="-220.31" font-family="Helvetica,sans-Serif" font-size="7.00" fill="#aaaaaa"> 0.185</text>
</g>
<!-- x3&#45;&gt;y1 -->
<g id="edge4" class="edge">
<title>x3&#45;&gt;y1</title>
<path fill="none" stroke="#cccccc" stroke-width="0.5" d="M169.44,-233.85C198.91,-231.71 235.27,-229.07 266.03,-226.83"/>
<polygon fill="#cccccc" stroke="#cccccc" stroke-width="0.5" points="266.45,-227.85 269.37,-226.59 266.3,-225.76 266.45,-227.85"/>
</g>
<!-- x4 -->
<g id="node5" class="node">
<title>x4</title>
<path fill="#fff8f0" stroke="#d9c5a0" stroke-width="0.6" d="M116.09,-218.56C116.09,-218.56 16.76,-218.56 16.76,-218.56 13.59,-218.56 10.43,-215.39 10.43,-212.23 10.43,-212.23 10.43,-205.89 10.43,-205.89 10.43,-202.73 13.59,-199.56 16.76,-199.56 16.76,-199.56 116.09,-199.56 116.09,-199.56 119.26,-199.56 122.43,-202.73 122.43,-205.89 122.43,-205.89 122.43,-212.23 122.43,-212.23 122.43,-215.39 119.26,-218.56 116.09,-218.56"/>
<text text-anchor="start" x="16.43" y="-207.56" font-family="Helvetica,sans-Serif" font-size="10.00">She likes coffee</text>
<text text-anchor="start" x="93.43" y="-207.56" font-family="Helvetica,sans-Serif" font-size="7.00" fill="#aaaaaa"> 0.079</text>
</g>
<!-- x4&#45;&gt;y1 -->
<g id="edge5" class="edge">
<title>x4&#45;&gt;y1</title>
<path fill="none" stroke="#cccccc" stroke-width="0.5" d="M122.54,-211.83C164.61,-213.9 222.27,-216.75 266.29,-218.92"/>
<polygon fill="#cccccc" stroke="#cccccc" stroke-width="0.5" points="266.38,-219.98 269.43,-219.08 266.49,-217.88 266.38,-219.98"/>
</g>
<!-- x5 -->
<g id="node6" class="node">
<title>x5</title>
<path fill="#fff8f0" stroke="#d9c5a0" stroke-width="0.6" d="M159.74,-184.62C159.74,-184.62 67.4,-184.62 67.4,-184.62 64.24,-184.62 61.07,-181.45 61.07,-178.28 61.07,-178.28 61.07,-171.95 61.07,-171.95 61.07,-168.78 64.24,-165.62 67.4,-165.62 67.4,-165.62 159.74,-165.62 159.74,-165.62 162.9,-165.62 166.07,-168.78 166.07,-171.95 166.07,-171.95 166.07,-178.28 166.07,-178.28 166.07,-181.45 162.9,-184.62 159.74,-184.62"/>
<text text-anchor="start" x="67.07" y="-173.62" font-family="Helvetica,sans-Serif" font-size="10.00">the bus is late</text>
<text text-anchor="start" x="137.07" y="-173.62" font-family="Helvetica,sans-Serif" font-size="7.00" fill="#aaaaaa"> 0.094</text>
</g>
<!-- y2 -->
<g id="node16" class="node">
<title>y2</title>
<path fill="#f0f7f0" stroke="#a0c9a0" stroke-width="0.6" d="M410.49,-164.43C410.49,-164.43 311.15,-164.43 311.15,-164.43 307.99,-164.43 304.82,-161.26 304.82,-158.09 304.82,-158.09 304.82,-151.76 304.82,-151.76 304.82,-148.59 307.99,-145.43 311.15,-145.43 311.15,-145.43 410.49,-145.43 410.49,-145.43 413.65,-145.43 416.82,-148.59 416.82,-151.76 416.82,-151.76 416.82,-158.09 416.82,-158.09 416.82,-161.26 413.65,-164.43 410.49,-164.43"/>
<text text-anchor="start" x="314.32" y="-153.43" font-family="Helvetica,sans-Serif" font-size="10.00">the bus is late</text>
<text text-anchor="start" x="384.32" y="-153.43" font-family="Helvetica,sans-Serif" font-size="7.00" fill="#aaaaaa"> 0.141</text>
</g>
<!-- x5&#45;&gt;y2 -->
<g id="edge6" class="edge">
<title>x5&#45;&gt;y2</title>
<path fill="none" stroke="#cccccc" stroke-width="0.5" d="M166.31,-170.81C205.9,-167.58 260.14,-163.15 301.29,-159.79"/>
<polygon fill="#cccccc" stroke="#cccccc" stroke-width="0.5" points="301.82,-160.8 304.73,-159.51 301.65,-158.7 301.82,-160.8"/>
</g>
<!-- x6 -->
<g id="node7" class="node">
<title>x6</title>
<path fill="#fff8f0" stroke="#d9c5a0" stroke-width="0.6" d="M103.51,-157.38C103.51,-157.38 15.17,-157.38 15.17,-157.38 12.01,-157.38 8.84,-154.22 8.84,-151.05 8.84,-151.05 8.84,-144.72 8.84,-144.72 8.84,-141.55 12.01,-138.38 15.17,-138.38 15.17,-138.38 103.51,-138.38 103.51,-138.38 106.67,-138.38 109.84,-141.55 109.84,-144.72 109.84,-144.72 109.84,-151.05 109.84,-151.05 109.84,-154.22 106.67,-157.38 103.51,-157.38"/>
<text text-anchor="start" x="14.84" y="-146.68" font-family="Helvetica,sans-Serif" font-size="9.00">The bus is late</text>
<text text-anchor="start" x="80.84" y="-146.68" font-family="Helvetica,sans-Serif" font-size="7.00" fill="#aaaaaa"> 0.047</text>
</g>
<!-- x6&#45;&gt;y2 -->
<g id="edge7" class="edge">
<title>x6&#45;&gt;y2</title>
<path fill="none" stroke="#cccccc" stroke-width="0.5" d="M110.14,-149.07C162.96,-150.3 245.56,-152.23 301.38,-153.54"/>
<polygon fill="#cccccc" stroke="#cccccc" stroke-width="0.5" points="301.66,-154.59 304.68,-153.61 301.71,-152.49 301.66,-154.59"/>
</g>
<!-- x7 -->
<g id="node8" class="node">
<title>x7</title>
<path fill="#fff8f0" stroke="#d9c5a0" stroke-width="0.6" d="M170.05,-129.32C170.05,-129.32 51.72,-129.32 51.72,-129.32 48.55,-129.32 45.38,-126.16 45.38,-122.99 45.38,-122.99 45.38,-116.66 45.38,-116.66 45.38,-113.49 48.55,-110.32 51.72,-110.32 51.72,-110.32 170.05,-110.32 170.05,-110.32 173.22,-110.32 176.38,-113.49 176.38,-116.66 176.38,-116.66 176.38,-122.99 176.38,-122.99 176.38,-126.16 173.22,-129.32 170.05,-129.32"/>
<text text-anchor="start" x="51.38" y="-118.32" font-family="Helvetica,sans-Serif" font-size="10.00">we need more time</text>
<text text-anchor="start" x="147.38" y="-118.32" font-family="Helvetica,sans-Serif" font-size="7.00" fill="#aaaaaa"> 0.072</text>
</g>
<!-- y3 -->
<g id="node17" class="node">
<title>y3</title>
<path fill="#f0f7f0" stroke="#a0c9a0" stroke-width="0.6" d="M387.19,-97.99C387.19,-97.99 268.86,-97.99 268.86,-97.99 265.69,-97.99 262.52,-94.83 262.52,-91.66 262.52,-91.66 262.52,-85.33 262.52,-85.33 262.52,-82.16 265.69,-78.99 268.86,-78.99 268.86,-78.99 387.19,-78.99 387.19,-78.99 390.36,-78.99 393.52,-82.16 393.52,-85.33 393.52,-85.33 393.52,-91.66 393.52,-91.66 393.52,-94.83 390.36,-97.99 387.19,-97.99"/>
<text text-anchor="start" x="268.52" y="-86.99" font-family="Helvetica,sans-Serif" font-size="10.00">we need more time</text>
<text text-anchor="start" x="364.52" y="-86.99" font-family="Helvetica,sans-Serif" font-size="7.00" fill="#aaaaaa"> 0.100</text>
</g>
<!-- x7&#45;&gt;y3 -->
<g id="edge8" class="edge">
<title>x7&#45;&gt;y3</title>
<path fill="none" stroke="#cccccc" stroke-width="0.5" d="M176.62,-110.34C202.77,-106.57 232.87,-102.22 259.3,-98.41"/>
<polygon fill="#cccccc" stroke="#cccccc" stroke-width="0.5" points="259.69,-99.41 262.51,-97.95 259.39,-97.34 259.69,-99.41"/>
</g>
<!-- x8 -->
<g id="node9" class="node">
<title>x8</title>
<path fill="#fff8f0" stroke="#d9c5a0" stroke-width="0.6" d="M135.59,-100.85C135.59,-100.85 23.26,-100.85 23.26,-100.85 20.09,-100.85 16.92,-97.68 16.92,-94.51 16.92,-94.51 16.92,-88.18 16.92,-88.18 16.92,-85.01 20.09,-81.85 23.26,-81.85 23.26,-81.85 135.59,-81.85 135.59,-81.85 138.76,-81.85 141.92,-85.01 141.92,-88.18 141.92,-88.18 141.92,-94.51 141.92,-94.51 141.92,-97.68 138.76,-100.85 135.59,-100.85"/>
<text text-anchor="start" x="22.92" y="-90.15" font-family="Helvetica,sans-Serif" font-size="9.00">We Need More Time</text>
<text text-anchor="start" x="112.92" y="-90.15" font-family="Helvetica,sans-Serif" font-size="7.00" fill="#aaaaaa"> 0.028</text>
</g>
<!-- x8&#45;&gt;y3 -->
<g id="edge9" class="edge">
<title>x8&#45;&gt;y3</title>
<path fill="none" stroke="#cccccc" stroke-width="0.5" d="M142.15,-90.63C177.83,-90.22 222.56,-89.7 259.2,-89.28"/>
<polygon fill="#cccccc" stroke="#cccccc" stroke-width="0.5" points="259.28,-90.33 262.27,-89.25 259.26,-88.23 259.28,-90.33"/>
</g>
<!-- x9 -->
<g id="node10" class="node">
<title>x9</title>
<path fill="#fff8f0" stroke="#d9c5a0" stroke-width="0.6" d="M194.78,-73.84C194.78,-73.84 75.45,-73.84 75.45,-73.84 72.28,-73.84 69.12,-70.67 69.12,-67.51 69.12,-67.51 69.12,-61.17 69.12,-61.17 69.12,-58.01 72.28,-54.84 75.45,-54.84 75.45,-54.84 194.78,-54.84 194.78,-54.84 197.95,-54.84 201.12,-58.01 201.12,-61.17 201.12,-61.17 201.12,-67.51 201.12,-67.51 201.12,-70.67 197.95,-73.84 194.78,-73.84"/>
<text text-anchor="start" x="75.12" y="-63.14" font-family="Helvetica,sans-Serif" font-size="9.00">that was unexpected</text>
<text text-anchor="start" x="172.12" y="-63.14" font-family="Helvetica,sans-Serif" font-size="7.00" fill="#aaaaaa"> 0.063</text>
</g>
<!-- y4 -->
<g id="node18" class="node">
<title>y4</title>
<path fill="#f0f7f0" stroke="#a0c9a0" stroke-width="0.6" d="M406.42,-52.51C406.42,-52.51 287.08,-52.51 287.08,-52.51 283.92,-52.51 280.75,-49.34 280.75,-46.18 280.75,-46.18 280.75,-39.84 280.75,-39.84 280.75,-36.68 283.92,-33.51 287.08,-33.51 287.08,-33.51 406.42,-33.51 406.42,-33.51 409.58,-33.51 412.75,-36.68 412.75,-39.84 412.75,-39.84 412.75,-46.18 412.75,-46.18 412.75,-49.34 409.58,-52.51 406.42,-52.51"/>
<text text-anchor="start" x="286.75" y="-41.81" font-family="Helvetica,sans-Serif" font-size="9.00">that was unexpected</text>
<text text-anchor="start" x="383.75" y="-41.81" font-family="Helvetica,sans-Serif" font-size="7.00" fill="#aaaaaa"> 0.085</text>
</g>
<!-- x9&#45;&gt;y4 -->
<g id="edge10" class="edge">
<title>x9&#45;&gt;y4</title>
<path fill="none" stroke="#cccccc" stroke-width="0.5" d="M201.21,-57.68C225.35,-55.25 252.72,-52.49 277.16,-50.02"/>
<polygon fill="#cccccc" stroke="#cccccc" stroke-width="0.5" points="277.55,-51.04 280.43,-49.69 277.34,-48.95 277.55,-51.04"/>
</g>
<!-- x10 -->
<g id="node11" class="node">
<title>x10</title>
<path fill="#fff8f0" stroke="#d9c5a0" stroke-width="0.6" d="M123.8,-46.83C123.8,-46.83 11.47,-46.83 11.47,-46.83 8.3,-46.83 5.13,-43.67 5.13,-40.5 5.13,-40.5 5.13,-34.17 5.13,-34.17 5.13,-31 8.3,-27.83 11.47,-27.83 11.47,-27.83 123.8,-27.83 123.8,-27.83 126.97,-27.83 130.13,-31 130.13,-34.17 130.13,-34.17 130.13,-40.5 130.13,-40.5 130.13,-43.67 126.97,-46.83 123.8,-46.83"/>
<text text-anchor="start" x="11.13" y="-36.43" font-family="Helvetica,sans-Serif" font-size="8.00">That Was Unexpected</text>
<text text-anchor="start" x="101.13" y="-36.43" font-family="Helvetica,sans-Serif" font-size="7.00" fill="#aaaaaa"> 0.022</text>
</g>
<!-- x10&#45;&gt;y4 -->
<g id="edge11" class="edge">
<title>x10&#45;&gt;y4</title>
<path fill="none" stroke="#cccccc" stroke-width="0.5" d="M130.27,-38.61C173.91,-39.5 232.13,-40.68 277.21,-41.6"/>
<polygon fill="#cccccc" stroke="#cccccc" stroke-width="0.5" points="277.41,-42.65 280.43,-41.66 277.45,-40.55 277.41,-42.65"/>
</g>
<!-- xdots1 -->
<g id="node12" class="node">
<title>xdots1</title>
<path fill="lightgrey" stroke="transparent" d="M114.65,-368.53C114.65,-368.53 73.31,-368.53 73.31,-368.53 70.15,-368.53 66.98,-365.37 66.98,-362.2 66.98,-362.2 66.98,-355.87 66.98,-355.87 66.98,-352.7 70.15,-349.53 73.31,-349.53 73.31,-349.53 114.65,-349.53 114.65,-349.53 117.81,-349.53 120.98,-352.7 120.98,-355.87 120.98,-355.87 120.98,-362.2 120.98,-362.2 120.98,-365.37 117.81,-368.53 114.65,-368.53"/>
<text text-anchor="start" x="87.98" y="-355.93" font-family="Helvetica,sans-Serif" font-size="12.00" fill="#bbbbbb">...</text>
</g>
<!-- xdots2 -->
<g id="node13" class="node">
<title>xdots2</title>
<path fill="lightgrey" stroke="transparent" d="M123.3,-19C123.3,-19 81.96,-19 81.96,-19 78.8,-19 75.63,-15.83 75.63,-12.67 75.63,-12.67 75.63,-6.33 75.63,-6.33 75.63,-3.17 78.8,0 81.96,0 81.96,0 123.3,0 123.3,0 126.46,0 129.63,-3.17 129.63,-6.33 129.63,-6.33 129.63,-12.67 129.63,-12.67 129.63,-15.83 126.46,-19 123.3,-19"/>
<text text-anchor="start" x="96.63" y="-6.4" font-family="Helvetica,sans-Serif" font-size="12.00" fill="#bbbbbb">...</text>
</g>
<!-- ydots1 -->
<g id="node19" class="node">
<title>ydots1</title>
<path fill="lightgrey" stroke="transparent" d="M364.52,-340.45C364.52,-340.45 323.19,-340.45 323.19,-340.45 320.02,-340.45 316.86,-337.28 316.86,-334.11 316.86,-334.11 316.86,-327.78 316.86,-327.78 316.86,-324.61 320.02,-321.45 323.19,-321.45 323.19,-321.45 364.52,-321.45 364.52,-321.45 367.69,-321.45 370.86,-324.61 370.86,-327.78 370.86,-327.78 370.86,-334.11 370.86,-334.11 370.86,-337.28 367.69,-340.45 364.52,-340.45"/>
<text text-anchor="start" x="337.86" y="-327.85" font-family="Helvetica,sans-Serif" font-size="12.00" fill="#bbbbbb">...</text>
</g>
<!-- ydots2 -->
<g id="node20" class="node">
<title>ydots2</title>
<path fill="lightgrey" stroke="transparent" d="M354.7,-19.64C354.7,-19.64 313.37,-19.64 313.37,-19.64 310.2,-19.64 307.03,-16.47 307.03,-13.31 307.03,-13.31 307.03,-6.97 307.03,-6.97 307.03,-3.81 310.2,-0.64 313.37,-0.64 313.37,-0.64 354.7,-0.64 354.7,-0.64 357.87,-0.64 361.03,-3.81 361.03,-6.97 361.03,-6.97 361.03,-13.31 361.03,-13.31 361.03,-16.47 357.87,-19.64 354.7,-19.64"/>
<text text-anchor="start" x="328.03" y="-7.04" font-family="Helvetica,sans-Serif" font-size="12.00" fill="#bbbbbb">...</text>
</g>
<!-- fst_label -->
<g id="node21" class="node">
<title>fst_label</title>
<path fill="lightgrey" stroke="transparent" d="M256.75,-204.61C256.75,-204.61 180.42,-204.61 180.42,-204.61 177.25,-204.61 174.08,-201.44 174.08,-198.28 174.08,-198.28 174.08,-191.94 174.08,-191.94 174.08,-188.78 177.25,-185.61 180.42,-185.61 180.42,-185.61 256.75,-185.61 256.75,-185.61 259.92,-185.61 263.08,-188.78 263.08,-191.94 263.08,-191.94 263.08,-198.28 263.08,-198.28 263.08,-201.44 259.92,-204.61 256.75,-204.61"/>
<text text-anchor="start" x="180.08" y="-193.31" font-family="Helvetica,sans-Serif" font-style="italic" font-size="11.00" fill="#555555">f</text>
<text text-anchor="start" x="184.08" y="-193.31" font-family="Helvetica,sans-Serif" font-size="11.00" fill="#555555"> = lowercase</text>
</g>
</g>
</svg>
